<svg width="184" height="42" viewBox="0 0 184 42" fill="none" xmlns="http://www.w3.org/2000/svg">
<g filter="url(#filter0_d_1_9)">
<path d="M16.3729 33.65C12.5062 33.65 9.50619 32.4667 7.37285 30.1C5.23952 27.7 4.17285 24.4 4.17285 20.2C4.17285 15.8333 5.30618 12.4333 7.57285 10C9.87285 7.56666 13.0062 6.35 16.9729 6.35C19.9729 6.35 23.1895 7.03333 26.6229 8.4C26.5562 9.36667 26.4062 10.65 26.1729 12.25C25.9395 13.8167 25.6895 15.2667 25.4229 16.6L22.0729 16.9L18.9729 12.95C18.1395 12.7833 17.2062 12.7 16.1729 12.7C15.3395 12.7 14.5729 12.75 13.8729 12.85C13.1062 14.3167 12.7229 16.3833 12.7229 19.05C12.7229 21.7833 13.2062 23.8167 14.1729 25.15C15.1395 26.45 16.6062 27.1 18.5729 27.1C19.5062 27.1 20.6395 26.9667 21.9729 26.7C23.3062 26.4 24.6729 25.9833 26.0729 25.45L27.2729 30.45C25.9395 31.3833 24.2729 32.15 22.2729 32.75C20.3062 33.35 18.3395 33.65 16.3729 33.65ZM41.2123 33.65C36.979 33.65 33.8123 32.5667 31.7123 30.4C29.6456 28.2333 28.6123 24.9167 28.6123 20.45C28.6123 17.5833 29.129 15.0833 30.1623 12.95C31.229 10.8167 32.7456 9.18333 34.7123 8.05C36.679 6.91666 38.9956 6.35 41.6623 6.35C50.2956 6.35 54.6123 10.8167 54.6123 19.75C54.6123 24.1167 53.429 27.5333 51.0623 30C48.729 32.4333 45.4456 33.65 41.2123 33.65ZM42.0123 27.8C42.679 27.8 43.2623 27.75 43.7623 27.65C44.2623 27.5167 44.7956 27.3167 45.3623 27.05C45.5623 26.2833 45.729 25.3 45.8623 24.1C45.9956 22.9 46.0623 21.75 46.0623 20.65C46.0623 17.95 45.629 15.9 44.7623 14.5C43.929 13.1 42.679 12.4 41.0123 12.4C39.9123 12.4 38.7956 12.55 37.6623 12.85C37.429 13.35 37.2456 14.1667 37.1123 15.3C36.979 16.4 36.9123 17.6667 36.9123 19.1C36.9123 21.9 37.3456 24.05 38.2123 25.55C39.1123 27.05 40.379 27.8 42.0123 27.8ZM56.0432 28.2L59.1432 27.3V15.2C59.1432 14.4667 59.0932 14 58.9932 13.8C58.8932 13.5667 58.6265 13.3167 58.1932 13.05L55.9932 11.85L56.1432 8.1L57.2432 7.9C61.6098 7.03333 64.7598 6.56667 66.6932 6.5C66.9598 7.2 67.1765 7.96667 67.3432 8.8C69.3765 7.86667 71.0265 7.23333 72.2932 6.9C73.5932 6.53333 74.8098 6.35 75.9432 6.35C81.2432 6.35 83.8932 9.51666 83.8932 15.85V25.65C83.8932 26.35 83.9432 26.8167 84.0432 27.05C84.1432 27.2833 84.4265 27.5333 84.8932 27.8L87.2932 29.2L87.0932 32.95H73.2932L73.0432 28.2L75.4932 27.5V18.05C75.4932 16.55 75.4432 15.5 75.3432 14.9C75.2432 14.3 74.9598 13.8333 74.4932 13.5C74.0598 13.1667 73.2765 13 72.1432 13C70.9432 13 69.4265 13.1833 67.5932 13.55V25.65C67.5932 26.35 67.6432 26.8167 67.7432 27.05C67.8432 27.2833 68.1098 27.5333 68.5432 27.8L70.9932 29.2L70.7932 32.95H56.2932L56.0432 28.2ZM98.1928 33.65C95.2594 33.65 93.0928 32.9333 91.6928 31.5C90.2928 30.0333 89.5928 27.8167 89.5928 24.85V12.7H86.0928V9.05L95.0928 0.85L97.9928 1.2V6.85H106.393V12.75H97.9928V23.05C97.9928 24.65 98.2094 25.7167 98.6428 26.25C99.1094 26.7833 99.9928 27.05 101.293 27.05C102.393 27.05 103.926 26.9 105.893 26.6L106.493 31.7C105.293 32.2667 103.943 32.7333 102.443 33.1C100.976 33.4667 99.5594 33.65 98.1928 33.65ZM115.394 33.65C113.127 33.65 111.31 33.0333 109.944 31.8C108.577 30.5333 107.894 28.9167 107.894 26.95C107.894 24.3167 109.21 22.25 111.844 20.75C114.51 19.25 118.377 18.4 123.444 18.2C123.444 16.6333 123.31 15.4833 123.044 14.75C122.81 13.9833 122.36 13.4667 121.694 13.2C121.06 12.9 120.077 12.75 118.744 12.75C117.377 12.75 116.41 12.8 115.844 12.9L113.794 16.95L110.094 16.7C109.527 14.0333 109.127 11.2667 108.894 8.4C110.76 7.76667 112.794 7.26667 114.994 6.9C117.227 6.53333 119.31 6.35 121.244 6.35C124.777 6.35 127.31 7.05 128.844 8.45C130.377 9.81667 131.144 12.1 131.144 15.3V25.75C131.144 26.35 131.194 26.7667 131.294 27C131.427 27.2333 131.694 27.4667 132.094 27.7L134.094 28.85L133.894 31.95C130.027 32.85 126.977 33.35 124.744 33.45C124.677 33.25 124.577 32.9 124.444 32.4C124.31 31.8667 124.194 31.3667 124.094 30.9C122.794 31.7333 121.36 32.4 119.794 32.9C118.26 33.4 116.794 33.65 115.394 33.65ZM118.744 28C120.077 28 121.694 27.55 123.594 26.65L123.394 22.85C122.594 22.7833 122.06 22.75 121.794 22.75C120.894 22.75 119.844 22.85 118.644 23.05C117.444 23.2167 116.494 23.4167 115.794 23.65C115.694 24.0833 115.644 24.4833 115.644 24.85C115.644 25.85 115.91 26.6333 116.444 27.2C117.01 27.7333 117.777 28 118.744 28ZM146.773 33.65C142.907 33.65 139.907 32.4667 137.773 30.1C135.64 27.7 134.573 24.4 134.573 20.2C134.573 15.8333 135.707 12.4333 137.973 10C140.273 7.56666 143.407 6.35 147.373 6.35C150.373 6.35 153.59 7.03333 157.023 8.4C156.957 9.36667 156.807 10.65 156.573 12.25C156.34 13.8167 156.09 15.2667 155.823 16.6L152.473 16.9L149.373 12.95C148.54 12.7833 147.607 12.7 146.573 12.7C145.74 12.7 144.973 12.75 144.273 12.85C143.507 14.3167 143.123 16.3833 143.123 19.05C143.123 21.7833 143.607 23.8167 144.573 25.15C145.54 26.45 147.007 27.1 148.973 27.1C149.907 27.1 151.04 26.9667 152.373 26.7C153.707 26.4 155.073 25.9833 156.473 25.45L157.673 30.45C156.34 31.3833 154.673 32.15 152.673 32.75C150.707 33.35 148.74 33.65 146.773 33.65ZM170.876 33.65C167.943 33.65 165.776 32.9333 164.376 31.5C162.976 30.0333 162.276 27.8167 162.276 24.85V12.7H158.776V9.05L167.776 0.85L170.676 1.2V6.85H179.076V12.75H170.676V23.05C170.676 24.65 170.893 25.7167 171.326 26.25C171.793 26.7833 172.676 27.05 173.976 27.05C175.076 27.05 176.61 26.9 178.576 26.6L179.176 31.7C177.976 32.2667 176.626 32.7333 175.126 33.1C173.66 33.4667 172.243 33.65 170.876 33.65Z" fill="#EFEFEF"/>
</g>
<defs>
<filter id="filter0_d_1_9" x="0.172852" y="0.850006" width="183.004" height="40.8" filterUnits="userSpaceOnUse" color-interpolation-filters="sRGB">
<feFlood flood-opacity="0" result="BackgroundImageFix"/>
<feColorMatrix in="SourceAlpha" type="matrix" values="0 0 0 0 0 0 0 0 0 0 0 0 0 0 0 0 0 0 127 0" result="hardAlpha"/>
<feOffset dy="4"/>
<feGaussianBlur stdDeviation="2"/>
<feComposite in2="hardAlpha" operator="out"/>
<feColorMatrix type="matrix" values="0 0 0 0 0 0 0 0 0 0 0 0 0 0 0 0 0 0 0.25 0"/>
<feBlend mode="normal" in2="BackgroundImageFix" result="effect1_dropShadow_1_9"/>
<feBlend mode="normal" in="SourceGraphic" in2="effect1_dropShadow_1_9" result="shape"/>
</filter>
</defs>
</svg>
