<svg width="448" height="95" viewBox="0 0 448 95" fill="none" xmlns="http://www.w3.org/2000/svg">
<path d="M3 80H445" stroke="#0A1931" stroke-width="5" stroke-linecap="round"/>
<path d="M217.434 80L203 65.5662L188.566 80L203 94.4338L217.434 80ZM2 82.5H203V77.5H2V82.5Z" fill="#0A1931"/>
<path d="M218.982 47.25H205.382L204.082 41.95L217.532 21.3L226.682 22.3L227.082 39.7H231.832V41.65L230.582 47.25H227.232L227.432 55.25L221.382 56.15H218.982V47.25ZM218.982 39.7V29.05L212.232 39.7H218.982ZM247.318 50C242.885 50 239.535 48.7833 237.268 46.35C235.002 43.9167 233.868 40.35 233.868 35.65C233.868 32.95 234.535 30.5333 235.868 28.4C237.202 26.2333 239.052 24.55 241.418 23.35C243.818 22.15 246.518 21.55 249.518 21.55C253.952 21.55 257.302 22.7667 259.568 25.2C261.868 27.6333 263.018 31.2333 263.018 36C263.018 38.7 262.352 41.1167 261.018 43.25C259.685 45.35 257.818 47 255.418 48.2C253.052 49.4 250.352 50 247.318 50ZM249.018 43.8C250.418 43.8 251.752 43.55 253.018 43.05C253.285 42.3167 253.502 41.35 253.668 40.15C253.835 38.9167 253.918 37.6667 253.918 36.4C253.918 33.6333 253.402 31.5333 252.368 30.1C251.335 28.6667 249.818 27.95 247.818 27.95C246.785 27.95 245.435 28.1 243.768 28.4C243.235 29.2333 242.968 31.3833 242.968 34.85C242.968 37.7167 243.485 39.9333 244.518 41.5C245.585 43.0333 247.085 43.8 249.018 43.8ZM266.582 45.6L292.932 20.8V26.1L266.582 50.85V45.6ZM272.632 33.55C270.799 33.55 269.399 33.0333 268.432 32C267.465 30.9667 266.982 29.4667 266.982 27.5C266.982 25.7667 267.599 24.35 268.832 23.25C270.065 22.15 271.615 21.6 273.482 21.6C275.315 21.6 276.715 22.1333 277.682 23.2C278.682 24.2333 279.182 25.7167 279.182 27.65C279.182 29.35 278.565 30.7667 277.332 31.9C276.099 33 274.532 33.55 272.632 33.55ZM273.282 30.25C273.782 30.25 274.182 30.1833 274.482 30.05C274.682 29.45 274.782 28.7 274.782 27.8C274.782 25.9 274.132 24.95 272.832 24.95C272.465 24.95 272.049 25 271.582 25.1C271.449 25.5667 271.382 26.25 271.382 27.15C271.382 29.2167 272.015 30.25 273.282 30.25ZM286.082 50.1C284.215 50.1 282.782 49.5833 281.782 48.55C280.815 47.4833 280.332 45.9667 280.332 44C280.332 42.3 280.949 40.9167 282.182 39.85C283.449 38.75 285.032 38.2 286.932 38.2C288.765 38.2 290.165 38.7167 291.132 39.75C292.099 40.75 292.582 42.2167 292.582 44.15C292.582 45.8833 291.965 47.3167 290.732 48.45C289.499 49.55 287.949 50.1 286.082 50.1ZM286.732 46.7C287.065 46.7 287.482 46.65 287.982 46.55C288.082 46.25 288.132 45.5667 288.132 44.5C288.132 42.4667 287.515 41.45 286.282 41.45C285.749 41.45 285.332 41.5167 285.032 41.65C284.865 42.25 284.782 42.9833 284.782 43.85C284.782 45.75 285.432 46.7 286.732 46.7Z" fill="#0A1931"/>
</svg>
