<svg width="434" height="49" viewBox="0 0 434 49" fill="none" xmlns="http://www.w3.org/2000/svg">
<g filter="url(#filter0_d_1_9)">
<path d="M4.31582 33.75L7.46582 32.9V13.75C7.46582 12.8833 7.39915 12.3167 7.26582 12.05C7.16582 11.75 6.84915 11.4833 6.31582 11.25L4.21582 10.05L4.36582 5.3H19.9658L20.2158 10.4L16.5158 11.4V18.7L27.9158 18.4V13.75C27.9158 12.8833 27.8492 12.3167 27.7158 12.05C27.5825 11.75 27.2325 11.4833 26.6658 11.25L24.2158 9.85L24.4658 5.3H39.8158L40.0158 10.55L36.9658 11.4V30.9C36.9658 31.7 37.0158 32.2167 37.1158 32.45C37.2492 32.6833 37.5492 32.9167 38.0158 33.15L40.0658 34.35L39.8658 39H24.6658L24.4158 33.85L27.9158 32.9V25.45L16.5158 24.95V30.9C16.5158 31.7 16.5658 32.2167 16.6658 32.45C16.7992 32.6833 17.1158 32.9167 17.6158 33.15L20.2658 34.7L20.0658 39H4.56582L4.31582 33.75ZM53.7924 39.65C49.559 39.65 46.3924 38.5667 44.2924 36.4C42.2257 34.2333 41.1924 30.9167 41.1924 26.45C41.1924 23.5833 41.709 21.0833 42.7424 18.95C43.809 16.8167 45.3257 15.1833 47.2924 14.05C49.259 12.9167 51.5757 12.35 54.2424 12.35C62.8757 12.35 67.1924 16.8167 67.1924 25.75C67.1924 30.1167 66.0091 33.5333 63.6424 36C61.3091 38.4333 58.0257 39.65 53.7924 39.65ZM54.5924 33.8C55.259 33.8 55.8424 33.75 56.3424 33.65C56.8424 33.5167 57.3757 33.3167 57.9424 33.05C58.1424 32.2833 58.309 31.3 58.4424 30.1C58.5757 28.9 58.6424 27.75 58.6424 26.65C58.6424 23.95 58.2091 21.9 57.3424 20.5C56.5091 19.1 55.2591 18.4 53.5924 18.4C52.4924 18.4 51.3757 18.55 50.2424 18.85C50.009 19.35 49.8257 20.1667 49.6924 21.3C49.559 22.4 49.4924 23.6667 49.4924 25.1C49.4924 27.9 49.9257 30.05 50.7924 31.55C51.6924 33.05 52.9591 33.8 54.5924 33.8ZM69.8369 19.7C69.4702 18.8 69.2202 18.2167 69.0869 17.95C68.9536 17.6833 68.7036 17.3167 68.3369 16.85L67.4869 15.75L67.7369 12.85H80.3869L80.8869 17.1L78.1369 17.75L81.5369 29.9L86.4869 13.25L91.6369 12.55L97.3369 30.35L100.537 18.85C100.604 18.65 100.637 18.5 100.637 18.4C100.637 18.1 100.487 17.9 100.187 17.8L97.7869 16.8L98.2869 12.85H107.787L108.287 16.75L99.6869 39.25L92.4869 39.8L88.3369 25.9L83.7869 39.25L76.5869 39.8L69.8369 19.7ZM118.716 19.7C118.349 18.8 118.099 18.2167 117.966 17.95C117.832 17.6833 117.582 17.3167 117.216 16.85L116.366 15.75L116.616 12.85H129.266L129.766 17.1L127.016 17.75L130.416 29.9L135.366 13.25L140.516 12.55L146.216 30.35L149.416 18.85C149.482 18.65 149.516 18.5 149.516 18.4C149.516 18.1 149.366 17.9 149.066 17.8L146.666 16.8L147.166 12.85H156.666L157.166 16.75L148.566 39.25L141.366 39.8L137.216 25.9L132.666 39.25L125.466 39.8L118.716 19.7ZM165.792 39.65C163.525 39.65 161.709 39.0333 160.342 37.8C158.975 36.5333 158.292 34.9167 158.292 32.95C158.292 30.3167 159.609 28.25 162.242 26.75C164.909 25.25 168.775 24.4 173.842 24.2C173.842 22.6333 173.709 21.4833 173.442 20.75C173.209 19.9833 172.759 19.4667 172.092 19.2C171.459 18.9 170.475 18.75 169.142 18.75C167.775 18.75 166.809 18.8 166.242 18.9L164.192 22.95L160.492 22.7C159.925 20.0333 159.525 17.2667 159.292 14.4C161.159 13.7667 163.192 13.2667 165.392 12.9C167.625 12.5333 169.709 12.35 171.642 12.35C175.175 12.35 177.709 13.05 179.242 14.45C180.775 15.8167 181.542 18.1 181.542 21.3V31.75C181.542 32.35 181.592 32.7667 181.692 33C181.825 33.2333 182.092 33.4667 182.492 33.7L184.492 34.85L184.292 37.95C180.425 38.85 177.375 39.35 175.142 39.45C175.075 39.25 174.975 38.9 174.842 38.4C174.709 37.8667 174.592 37.3667 174.492 36.9C173.192 37.7333 171.759 38.4 170.192 38.9C168.659 39.4 167.192 39.65 165.792 39.65ZM169.142 34C170.475 34 172.092 33.55 173.992 32.65L173.792 28.85C172.992 28.7833 172.459 28.75 172.192 28.75C171.292 28.75 170.242 28.85 169.042 29.05C167.842 29.2167 166.892 29.4167 166.192 29.65C166.092 30.0833 166.042 30.4833 166.042 30.85C166.042 31.85 166.309 32.6333 166.842 33.2C167.409 33.7333 168.175 34 169.142 34ZM194.528 39.85C191.894 39.85 188.844 39.3833 185.378 38.45C185.578 35.1833 185.794 32.7667 186.028 31.2L188.878 30.65L192.028 34C193.128 34.3333 194.361 34.5 195.728 34.5C196.494 34.5 197.094 34.45 197.528 34.35C197.628 34.0833 197.678 33.7167 197.678 33.25C197.678 32.85 197.578 32.5167 197.378 32.25C197.211 31.9833 196.811 31.6667 196.178 31.3C195.544 30.9333 194.444 30.3667 192.878 29.6C190.911 28.5667 189.411 27.65 188.378 26.85C187.344 26.0167 186.594 25.1667 186.128 24.3C185.694 23.4333 185.478 22.4 185.478 21.2C185.478 18.5333 186.461 16.4167 188.428 14.85C190.428 13.2833 193.128 12.5 196.528 12.5C197.928 12.5 199.394 12.6667 200.928 13C202.494 13.3 203.894 13.7167 205.128 14.25C205.128 16.4167 204.978 18.8333 204.678 21.5L202.078 21.9L198.728 18.3C197.861 18.0333 196.594 17.9 194.928 17.9C194.661 17.9 194.128 17.9333 193.328 18C193.228 18.2 193.178 18.5167 193.178 18.95C193.178 19.4167 193.311 19.8333 193.578 20.2C193.844 20.5333 194.311 20.9167 194.978 21.35C195.678 21.75 196.778 22.3333 198.278 23.1C200.478 24.1667 202.128 25.1 203.228 25.9C204.361 26.6667 205.144 27.45 205.578 28.25C206.044 29.05 206.278 30.0167 206.278 31.15C206.278 33.8833 205.228 36.0167 203.128 37.55C201.061 39.0833 198.194 39.85 194.528 39.85ZM226.427 39.65C223.494 39.65 221.327 38.9333 219.927 37.5C218.527 36.0333 217.827 33.8167 217.827 30.85V18.7H214.327V15.05L223.327 6.85L226.227 7.2V12.85H234.627V18.75H226.227V29.05C226.227 30.65 226.444 31.7167 226.877 32.25C227.344 32.7833 228.227 33.05 229.527 33.05C230.627 33.05 232.16 32.9 234.127 32.6L234.727 37.7C233.527 38.2667 232.177 38.7333 230.677 39.1C229.21 39.4667 227.794 39.65 226.427 39.65ZM235.842 34.25L238.942 33.35V9.4C238.942 8.66667 238.892 8.2 238.792 8C238.692 7.76667 238.425 7.51666 237.992 7.25L235.792 6.1L235.942 2.3L237.492 2.05C241.892 1.25 244.975 0.816666 246.742 0.749998C247.042 1.55 247.259 2.41666 247.392 3.35V14.75C249.225 13.9167 250.775 13.3167 252.042 12.95C253.342 12.55 254.625 12.35 255.892 12.35C261.092 12.35 263.692 15.5167 263.692 21.85V31.7C263.692 32.4 263.742 32.8667 263.842 33.1C263.942 33.3333 264.225 33.5833 264.692 33.85L267.092 35.25L266.892 39H253.092L252.842 34.25L255.292 33.55V24.05C255.292 22.5833 255.242 21.55 255.142 20.95C255.075 20.3167 254.809 19.8333 254.342 19.5C253.875 19.1667 253.092 19 251.992 19C250.925 19 249.392 19.1833 247.392 19.55V31.7C247.392 32.4 247.442 32.8667 247.542 33.1C247.642 33.3333 247.909 33.5833 248.342 33.85L250.792 35.25L250.592 39H236.092L235.842 34.25ZM279.5 39.6C275.6 39.6 272.583 38.4167 270.45 36.05C268.35 33.6833 267.3 30.4167 267.3 26.25C267.3 23.35 267.816 20.8667 268.85 18.8C269.883 16.7 271.35 15.1 273.25 14C275.15 12.9 277.366 12.35 279.9 12.35C283.666 12.35 286.55 13.55 288.55 15.95C290.583 18.35 291.55 21.7667 291.45 26.2L276.25 29C276.716 30.4 277.366 31.4333 278.2 32.1C279.066 32.7333 280.2 33.05 281.6 33.05C282.566 33.05 283.716 32.9167 285.05 32.65C286.383 32.35 287.733 31.95 289.1 31.45L290.25 36.4C289.016 37.3333 287.416 38.1 285.45 38.7C283.483 39.3 281.5 39.6 279.5 39.6ZM283.25 22C283.183 20.7333 282.816 19.8167 282.15 19.25C281.516 18.65 280.616 18.35 279.45 18.35C278.483 18.35 277.566 18.4833 276.7 18.75C276 20.3833 275.683 22.15 275.75 24.05L283.25 22ZM313.877 39.65C310.01 39.65 307.01 38.4667 304.877 36.1C302.743 33.7 301.677 30.4 301.677 26.2C301.677 21.8333 302.81 18.4333 305.077 16C307.377 13.5667 310.51 12.35 314.477 12.35C317.477 12.35 320.693 13.0333 324.127 14.4C324.06 15.3667 323.91 16.65 323.677 18.25C323.443 19.8167 323.193 21.2667 322.927 22.6L319.577 22.9L316.477 18.95C315.643 18.7833 314.71 18.7 313.677 18.7C312.843 18.7 312.077 18.75 311.377 18.85C310.61 20.3167 310.227 22.3833 310.227 25.05C310.227 27.7833 310.71 29.8167 311.677 31.15C312.643 32.45 314.11 33.1 316.077 33.1C317.01 33.1 318.143 32.9667 319.477 32.7C320.81 32.4 322.177 31.9833 323.577 31.45L324.777 36.45C323.443 37.3833 321.777 38.15 319.777 38.75C317.81 39.35 315.843 39.65 313.877 39.65ZM325.786 34.4L329.286 33.35V9.4C329.286 8.66667 329.219 8.2 329.086 8C328.986 7.76667 328.703 7.51666 328.236 7.25L326.036 6.1L326.286 2.3C326.953 2.16667 327.469 2.08333 327.836 2.05C332.236 1.25 335.303 0.816666 337.036 0.749998C337.369 1.51666 337.586 2.38333 337.686 3.35V31.7C337.686 32.4 337.736 32.8667 337.836 33.1C337.936 33.3333 338.219 33.5833 338.686 33.85L341.136 35.25L340.936 39H325.936L325.786 34.4ZM349.37 39.65C347.103 39.65 345.287 39.0333 343.92 37.8C342.553 36.5333 341.87 34.9167 341.87 32.95C341.87 30.3167 343.187 28.25 345.82 26.75C348.487 25.25 352.353 24.4 357.42 24.2C357.42 22.6333 357.287 21.4833 357.02 20.75C356.787 19.9833 356.337 19.4667 355.67 19.2C355.037 18.9 354.053 18.75 352.72 18.75C351.353 18.75 350.387 18.8 349.82 18.9L347.77 22.95L344.07 22.7C343.503 20.0333 343.103 17.2667 342.87 14.4C344.737 13.7667 346.77 13.2667 348.97 12.9C351.203 12.5333 353.287 12.35 355.22 12.35C358.753 12.35 361.287 13.05 362.82 14.45C364.353 15.8167 365.12 18.1 365.12 21.3V31.75C365.12 32.35 365.17 32.7667 365.27 33C365.403 33.2333 365.67 33.4667 366.07 33.7L368.07 34.85L367.87 37.95C364.003 38.85 360.953 39.35 358.72 39.45C358.653 39.25 358.553 38.9 358.42 38.4C358.287 37.8667 358.17 37.3667 358.07 36.9C356.77 37.7333 355.337 38.4 353.77 38.9C352.237 39.4 350.77 39.65 349.37 39.65ZM352.72 34C354.053 34 355.67 33.55 357.57 32.65L357.37 28.85C356.57 28.7833 356.037 28.75 355.77 28.75C354.87 28.75 353.82 28.85 352.62 29.05C351.42 29.2167 350.47 29.4167 349.77 29.65C349.67 30.0833 349.62 30.4833 349.62 30.85C349.62 31.85 349.887 32.6333 350.42 33.2C350.987 33.7333 351.753 34 352.72 34ZM378.106 39.85C375.472 39.85 372.422 39.3833 368.956 38.45C369.156 35.1833 369.372 32.7667 369.606 31.2L372.456 30.65L375.606 34C376.706 34.3333 377.939 34.5 379.306 34.5C380.072 34.5 380.672 34.45 381.106 34.35C381.206 34.0833 381.256 33.7167 381.256 33.25C381.256 32.85 381.156 32.5167 380.956 32.25C380.789 31.9833 380.389 31.6667 379.756 31.3C379.122 30.9333 378.022 30.3667 376.456 29.6C374.489 28.5667 372.989 27.65 371.956 26.85C370.922 26.0167 370.172 25.1667 369.706 24.3C369.272 23.4333 369.056 22.4 369.056 21.2C369.056 18.5333 370.039 16.4167 372.006 14.85C374.006 13.2833 376.706 12.5 380.106 12.5C381.506 12.5 382.972 12.6667 384.506 13C386.072 13.3 387.472 13.7167 388.706 14.25C388.706 16.4167 388.556 18.8333 388.256 21.5L385.656 21.9L382.306 18.3C381.439 18.0333 380.172 17.9 378.506 17.9C378.239 17.9 377.706 17.9333 376.906 18C376.806 18.2 376.756 18.5167 376.756 18.95C376.756 19.4167 376.889 19.8333 377.156 20.2C377.422 20.5333 377.889 20.9167 378.556 21.35C379.256 21.75 380.356 22.3333 381.856 23.1C384.056 24.1667 385.706 25.1 386.806 25.9C387.939 26.6667 388.722 27.45 389.156 28.25C389.622 29.05 389.856 30.0167 389.856 31.15C389.856 33.8833 388.806 36.0167 386.706 37.55C384.639 39.0833 381.772 39.85 378.106 39.85ZM399.908 39.85C397.275 39.85 394.225 39.3833 390.758 38.45C390.958 35.1833 391.175 32.7667 391.408 31.2L394.258 30.65L397.408 34C398.508 34.3333 399.742 34.5 401.108 34.5C401.875 34.5 402.475 34.45 402.908 34.35C403.008 34.0833 403.058 33.7167 403.058 33.25C403.058 32.85 402.958 32.5167 402.758 32.25C402.592 31.9833 402.192 31.6667 401.558 31.3C400.925 30.9333 399.825 30.3667 398.258 29.6C396.292 28.5667 394.792 27.65 393.758 26.85C392.725 26.0167 391.975 25.1667 391.508 24.3C391.075 23.4333 390.858 22.4 390.858 21.2C390.858 18.5333 391.842 16.4167 393.808 14.85C395.808 13.2833 398.508 12.5 401.908 12.5C403.308 12.5 404.775 12.6667 406.308 13C407.875 13.3 409.275 13.7167 410.508 14.25C410.508 16.4167 410.358 18.8333 410.058 21.5L407.458 21.9L404.108 18.3C403.242 18.0333 401.975 17.9 400.308 17.9C400.042 17.9 399.508 17.9333 398.708 18C398.608 18.2 398.558 18.5167 398.558 18.95C398.558 19.4167 398.692 19.8333 398.958 20.2C399.225 20.5333 399.692 20.9167 400.358 21.35C401.058 21.75 402.158 22.3333 403.658 23.1C405.858 24.1667 407.508 25.1 408.608 25.9C409.742 26.6667 410.525 27.45 410.958 28.25C411.425 29.05 411.658 30.0167 411.658 31.15C411.658 33.8833 410.608 36.0167 408.508 37.55C406.442 39.0833 403.575 39.85 399.908 39.85ZM418.587 29.5C417.62 27.6333 417.137 26.0333 417.137 24.7C417.137 23.1667 417.853 21.4667 419.287 19.6L421.087 17.3C421.12 16.1667 420.937 15.3167 420.537 14.75C420.137 14.15 419.537 13.7167 418.737 13.45C417.937 13.15 416.603 12.7833 414.737 12.35L412.937 11.9L413.037 10.4C414.303 7.93333 415.653 5.76667 417.087 3.9C421.12 4.56666 424.17 5.46667 426.237 6.6C428.303 7.7 429.337 9.31667 429.337 11.45C429.337 12.6833 429.02 13.8 428.387 14.8C427.787 15.7667 426.903 16.8667 425.737 18.1L424.837 19.1C424.237 19.7667 423.803 20.3333 423.537 20.8C423.27 21.2333 423.137 21.6667 423.137 22.1C423.137 22.5333 423.253 23 423.487 23.5C423.753 23.9667 424.22 24.6833 424.887 25.65C423.053 26.9833 420.953 28.2667 418.587 29.5ZM416.137 33.65L423.587 31.7L425.437 38.6L418.037 40.6L416.137 33.65Z" fill="#EFEFEF"/>
</g>
<defs>
<filter id="filter0_d_1_9" x="0.21582" y="0.75" width="433.121" height="47.85" filterUnits="userSpaceOnUse" color-interpolation-filters="sRGB">
<feFlood flood-opacity="0" result="BackgroundImageFix"/>
<feColorMatrix in="SourceAlpha" type="matrix" values="0 0 0 0 0 0 0 0 0 0 0 0 0 0 0 0 0 0 127 0" result="hardAlpha"/>
<feOffset dy="4"/>
<feGaussianBlur stdDeviation="2"/>
<feComposite in2="hardAlpha" operator="out"/>
<feColorMatrix type="matrix" values="0 0 0 0 0 0 0 0 0 0 0 0 0 0 0 0 0 0 0.25 0"/>
<feBlend mode="normal" in2="BackgroundImageFix" result="effect1_dropShadow_1_9"/>
<feBlend mode="normal" in="SourceGraphic" in2="effect1_dropShadow_1_9" result="shape"/>
</filter>
</defs>
</svg>
