<svg width="625" height="321" viewBox="0 0 625 321" fill="none" xmlns="http://www.w3.org/2000/svg">
<g filter="url(#filter0_d_1_10)">
<path d="M37.9576 116.8C26.9576 116.8 15.8076 115.1 4.50762 111.7C5.00762 101.8 5.80762 92.6 6.90762 84.1L18.4576 81.85L25.9576 94.6C31.9576 96.7 37.2576 97.75 41.8576 97.75C43.4576 97.75 46.8576 97.3 52.0576 96.4C52.2576 94.4 52.3576 93.05 52.3576 92.35C52.3576 89.95 51.9576 88.15 51.1576 86.95C50.3576 85.65 48.6076 84.25 45.9076 82.75C43.2076 81.15 38.3576 78.8 31.3576 75.7C22.7576 71.5 16.5576 67 12.7576 62.2C8.95762 57.3 7.05762 51.55 7.05762 44.95C7.05762 34.65 10.5576 26.6 17.5576 20.8C24.5576 15 34.1576 12.1 46.3576 12.1C52.2576 12.1 58.1076 12.7 63.9076 13.9C69.8076 15 74.9576 16.55 79.3576 18.55C79.1576 24.15 78.7076 31.1 78.0076 39.4L77.5576 45.85L66.6076 47.5L55.2076 32.95C51.6076 31.85 47.1076 31.3 41.7076 31.3C38.3076 31.3 35.7576 31.6 34.0576 32.2C33.5576 34.2 33.3076 35.75 33.3076 36.85C33.3076 39.05 33.8576 41 34.9576 42.7C36.0576 44.3 38.0076 46 40.8076 47.8C43.6076 49.5 47.7576 51.65 53.2576 54.25C61.2576 58.05 67.3076 61.4 71.4076 64.3C75.5076 67.2 78.3576 70.25 79.9576 73.45C81.6576 76.55 82.5076 80.35 82.5076 84.85C82.5076 94.75 78.5576 102.55 70.6576 108.25C62.7576 113.95 51.8576 116.8 37.9576 116.8ZM126.099 116.8C114.399 116.8 105.349 113.25 98.949 106.15C92.649 99.05 89.499 89.25 89.499 76.75C89.499 68.05 91.049 60.6 94.149 54.4C97.249 48.1 101.649 43.3 107.349 40C113.049 36.7 119.699 35.05 127.299 35.05C138.599 35.05 147.249 38.65 153.249 45.85C159.349 53.05 162.249 63.3 161.949 76.6L116.349 85C117.749 89.2 119.699 92.3 122.199 94.3C124.799 96.2 128.199 97.15 132.399 97.15C135.299 97.15 138.749 96.75 142.749 95.95C146.749 95.05 150.799 93.85 154.899 92.35L158.349 107.2C154.649 110 149.849 112.3 143.949 114.1C138.049 115.9 132.099 116.8 126.099 116.8ZM137.349 64C137.149 60.2 136.049 57.45 134.049 55.75C132.149 53.95 129.449 53.05 125.949 53.05C123.049 53.05 120.299 53.45 117.699 54.25C115.599 59.15 114.649 64.45 114.849 70.15L137.349 64ZM202.179 116.8C196.679 116.8 191.179 116.2 185.679 115C180.179 113.9 175.079 112.4 170.379 110.5V26.2C170.379 24 170.229 22.6 169.929 22C169.629 21.3 168.829 20.55 167.529 19.75L160.479 16.3L161.229 4.9C170.529 3.29999 177.579 2.14999 182.379 1.45C187.179 0.749993 190.929 0.349992 193.629 0.249993C194.629 2.35 195.329 4.95 195.729 8.04999V38.05C201.429 36.05 207.079 35.05 212.679 35.05C223.179 35.05 231.379 38.4 237.279 45.1C243.279 51.7 246.279 61.2 246.279 73.6C246.279 87.3 242.479 97.95 234.879 105.55C227.379 113.05 216.479 116.8 202.179 116.8ZM207.429 97.45C212.129 97.45 215.629 96.95 217.929 95.95C218.729 93.25 219.379 90.1 219.879 86.5C220.379 82.9 220.629 79.4 220.629 76C220.629 60.6 215.479 52.9 205.179 52.9C202.579 52.9 199.429 53.35 195.729 54.25V95.5C198.329 96.8 202.229 97.45 207.429 97.45ZM290.46 116.8C278.76 116.8 269.71 113.25 263.31 106.15C257.01 99.05 253.86 89.25 253.86 76.75C253.86 68.05 255.41 60.6 258.51 54.4C261.61 48.1 266.01 43.3 271.71 40C277.41 36.7 284.06 35.05 291.66 35.05C302.96 35.05 311.61 38.65 317.61 45.85C323.71 53.05 326.61 63.3 326.31 76.6L280.71 85C282.11 89.2 284.06 92.3 286.56 94.3C289.16 96.2 292.56 97.15 296.76 97.15C299.66 97.15 303.11 96.75 307.11 95.95C311.11 95.05 315.16 93.85 319.26 92.35L322.71 107.2C319.01 110 314.21 112.3 308.31 114.1C302.41 115.9 296.46 116.8 290.46 116.8ZM301.71 64C301.51 60.2 300.41 57.45 298.41 55.75C296.51 53.95 293.81 53.05 290.31 53.05C287.41 53.05 284.66 53.45 282.06 54.25C279.96 59.15 279.01 64.45 279.21 70.15L301.71 64ZM327.653 101.2L338.153 98.05V26.2C338.153 24 337.953 22.6 337.553 22C337.253 21.3 336.403 20.55 335.003 19.75L328.403 16.3L329.153 4.9C331.153 4.5 332.703 4.25 333.803 4.15C347.003 1.75 356.203 0.449997 361.403 0.249993C362.403 2.54999 363.053 5.14999 363.353 8.04999V93.1C363.353 95.2 363.503 96.6 363.803 97.3C364.103 98 364.953 98.75 366.353 99.55L373.703 103.75L373.103 115H328.103L327.653 101.2ZM375.923 101.2L386.423 98.05V26.2C386.423 24 386.223 22.6 385.823 22C385.523 21.3 384.673 20.55 383.273 19.75L376.673 16.3L377.423 4.9C379.423 4.5 380.973 4.25 382.073 4.15C395.273 1.75 404.473 0.449997 409.673 0.249993C410.673 2.54999 411.323 5.14999 411.623 8.04999V93.1C411.623 95.2 411.773 96.6 412.073 97.3C412.373 98 413.223 98.75 414.623 99.55L421.973 103.75L421.373 115H376.373L375.923 101.2ZM424.492 99.25L433.942 96.7V39.25C433.942 36.65 433.742 34.95 433.342 34.15C433.042 33.25 432.092 32.45 430.492 31.75L424.192 28.15L424.642 13.9H471.442L472.192 29.2L461.092 32.2V60.4L487.342 32.05C487.742 31.65 487.942 31.1 487.942 30.4C487.942 29.9 487.792 29.45 487.492 29.05L483.142 23.8L484.792 13.9H519.592L521.392 24.1L487.042 60.85L523.792 108.25V115H495.142L461.092 69.85V90.7C461.092 92.9 461.242 94.4 461.542 95.2C461.942 96 462.892 96.8 464.392 97.6L472.342 102.1L471.742 115H425.242L424.492 99.25ZM568.54 117.1C551.94 117.1 539.54 112.9 531.34 104.5C523.24 96.1 519.19 83.35 519.19 66.25C519.19 55.15 521.24 45.55 525.34 37.45C529.44 29.25 535.29 22.95 542.89 18.55C550.49 14.15 559.54 11.95 570.04 11.95C603.44 11.95 620.14 29 620.14 63.1C620.14 74.3 618.09 83.95 613.99 92.05C609.89 100.15 603.94 106.35 596.14 110.65C588.44 114.95 579.24 117.1 568.54 117.1ZM571.69 96.4C577.39 96.4 582.84 94.95 588.04 92.05C589.14 88.95 589.99 85.1 590.59 80.5C591.19 75.8 591.49 71.2 591.49 66.7C591.49 55.6 589.39 47.2 585.19 41.5C581.09 35.8 575.04 32.95 567.04 32.95C561.34 32.95 555.84 34 550.54 36.1C549.44 38 548.59 41.15 547.99 45.55C547.39 49.85 547.09 54.8 547.09 60.4C547.09 72 549.19 80.9 553.39 87.1C557.59 93.3 563.69 96.4 571.69 96.4Z" fill="#185ADB"/>
<path d="M8.74922 295.7L19.6992 292.7V235.55C19.6992 232.95 19.4992 231.25 19.0992 230.45C18.6992 229.55 17.6492 228.75 15.9492 228.05L8.14922 223.7L9.04922 211.55C16.6492 210.35 23.8492 209.5 30.6492 209C37.4492 208.4 44.7492 208.1 52.5492 208.1C63.3492 208.1 71.9992 209.25 78.4992 211.55C85.0992 213.85 89.8992 217.45 92.8992 222.35C95.9992 227.25 97.5492 233.75 97.5492 241.85C97.5492 252.35 93.7492 260.6 86.1492 266.6C78.6492 272.6 68.3492 275.6 55.2492 275.6L46.9992 275.3V286.7C46.9992 289.1 47.1492 290.65 47.4492 291.35C47.8492 292.05 48.7492 292.75 50.1492 293.45L59.2992 298.85L58.6992 311H9.49922L8.74922 295.7ZM56.5992 258.95C61.9992 258.95 65.9492 258.4 68.4492 257.3C69.5492 252.4 70.0992 247.25 70.0992 241.85C70.0992 235.95 68.9492 231.75 66.6492 229.25C64.4492 226.75 60.8492 225.5 55.8492 225.5C54.1492 225.5 51.1992 225.7 46.9992 226.1V258.05C49.6992 258.65 52.8992 258.95 56.5992 258.95ZM139.566 312.95C126.866 312.95 117.366 309.7 111.066 303.2C104.866 296.7 101.766 286.75 101.766 273.35C101.766 264.75 103.316 257.25 106.416 250.85C109.616 244.45 114.166 239.55 120.066 236.15C125.966 232.75 132.916 231.05 140.916 231.05C166.816 231.05 179.766 244.45 179.766 271.25C179.766 284.35 176.216 294.6 169.116 302C162.116 309.3 152.266 312.95 139.566 312.95ZM141.966 295.4C143.966 295.4 145.716 295.25 147.216 294.95C148.716 294.55 150.316 293.95 152.016 293.15C152.616 290.85 153.116 287.9 153.516 284.3C153.916 280.7 154.116 277.25 154.116 273.95C154.116 265.85 152.816 259.7 150.216 255.5C147.716 251.3 143.966 249.2 138.966 249.2C135.666 249.2 132.316 249.65 128.916 250.55C128.216 252.05 127.666 254.5 127.266 257.9C126.866 261.2 126.666 265 126.666 269.3C126.666 277.7 127.966 284.15 130.566 288.65C133.266 293.15 137.066 295.4 141.966 295.4ZM183.476 296.75L192.626 294.05V257.6C192.626 255.4 192.476 254 192.176 253.4C191.876 252.7 191.076 251.95 189.776 251.15L183.176 247.55L183.626 236.3C185.326 235.9 186.776 235.65 187.976 235.55C200.076 233.05 209.026 231.7 214.826 231.5C215.726 234.1 216.576 237.35 217.376 241.25C223.376 236.55 228.476 233.3 232.676 231.5H241.226C241.126 235.3 240.876 239.45 240.476 243.95C240.076 248.35 239.576 251.9 238.976 254.6C235.376 254.4 232.726 254.3 231.026 254.3C226.826 254.3 222.476 254.55 217.976 255.05V289.1C217.976 291.2 218.126 292.6 218.426 293.3C218.726 294 219.526 294.75 220.826 295.55L229.826 300.35L229.226 311H184.226L183.476 296.75ZM280.185 312.95C271.385 312.95 264.885 310.8 260.685 306.5C256.485 302.1 254.385 295.45 254.385 286.55V250.1H243.885V239.15L270.885 214.55L279.585 215.6V232.55H304.785V250.25H279.585V281.15C279.585 285.95 280.235 289.15 281.535 290.75C282.935 292.35 285.585 293.15 289.485 293.15C292.785 293.15 297.385 292.7 303.285 291.8L305.085 307.1C301.485 308.8 297.435 310.2 292.935 311.3C288.535 312.4 284.285 312.95 280.185 312.95ZM310.037 297.2L320.537 294.05V250.1L310.037 249.95V235.25L320.537 234.65V224.9C320.537 215.8 323.187 208.75 328.487 203.75C333.787 198.75 341.487 196.25 351.587 196.25C356.787 196.25 363.087 196.9 370.487 198.2L367.037 218.6C362.637 217.4 358.787 216.6 355.487 216.2C352.287 215.7 349.037 215.5 345.737 215.6V233.3L362.837 232.25V250.7L345.737 250.4V289.1C345.737 291.2 345.887 292.6 346.187 293.3C346.487 294 347.337 294.75 348.737 295.55L358.037 300.65L357.587 311H310.487L310.037 297.2ZM403.396 312.95C390.696 312.95 381.196 309.7 374.896 303.2C368.696 296.7 365.596 286.75 365.596 273.35C365.596 264.75 367.146 257.25 370.246 250.85C373.446 244.45 377.996 239.55 383.896 236.15C389.796 232.75 396.746 231.05 404.746 231.05C430.646 231.05 443.596 244.45 443.596 271.25C443.596 284.35 440.046 294.6 432.946 302C425.946 309.3 416.096 312.95 403.396 312.95ZM405.796 295.4C407.796 295.4 409.546 295.25 411.046 294.95C412.546 294.55 414.146 293.95 415.846 293.15C416.446 290.85 416.946 287.9 417.346 284.3C417.746 280.7 417.946 277.25 417.946 273.95C417.946 265.85 416.646 259.7 414.046 255.5C411.546 251.3 407.796 249.2 402.796 249.2C399.496 249.2 396.146 249.65 392.746 250.55C392.046 252.05 391.496 254.5 391.096 257.9C390.696 261.2 390.496 265 390.496 269.3C390.496 277.7 391.796 284.15 394.396 288.65C397.096 293.15 400.896 295.4 405.796 295.4ZM444.369 297.2L454.869 294.05V222.2C454.869 220 454.669 218.6 454.269 218C453.969 217.3 453.119 216.55 451.719 215.75L445.119 212.3L445.869 200.9C447.869 200.5 449.419 200.25 450.519 200.15C463.719 197.75 472.919 196.45 478.119 196.25C479.119 198.55 479.769 201.15 480.069 204.05V289.1C480.069 291.2 480.219 292.6 480.519 293.3C480.819 294 481.669 294.75 483.069 295.55L490.419 299.75L489.819 311H444.819L444.369 297.2ZM498.939 200L524.439 193.25L530.589 216.05L505.239 222.95L498.939 200ZM492.639 297.2L503.139 294.05V257.6C503.139 255.4 502.939 254 502.539 253.4C502.239 252.7 501.389 251.95 499.989 251.15L493.389 247.55L494.139 236.3C502.439 234.7 508.839 233.55 513.339 232.85C517.939 232.05 522.139 231.6 525.939 231.5C527.239 235.8 528.039 239 528.339 241.1V289.1C528.339 291.2 528.489 292.6 528.789 293.3C529.089 294 529.939 294.75 531.339 295.55L538.689 299.75L538.089 311H493.089L492.639 297.2ZM577.941 312.95C565.241 312.95 555.741 309.7 549.441 303.2C543.241 296.7 540.141 286.75 540.141 273.35C540.141 264.75 541.691 257.25 544.791 250.85C547.991 244.45 552.541 239.55 558.441 236.15C564.341 232.75 571.291 231.05 579.291 231.05C605.191 231.05 618.141 244.45 618.141 271.25C618.141 284.35 614.591 294.6 607.491 302C600.491 309.3 590.641 312.95 577.941 312.95ZM580.341 295.4C582.341 295.4 584.091 295.25 585.591 294.95C587.091 294.55 588.691 293.95 590.391 293.15C590.991 290.85 591.491 287.9 591.891 284.3C592.291 280.7 592.491 277.25 592.491 273.95C592.491 265.85 591.191 259.7 588.591 255.5C586.091 251.3 582.341 249.2 577.341 249.2C574.041 249.2 570.691 249.65 567.291 250.55C566.591 252.05 566.041 254.5 565.641 257.9C565.241 261.2 565.041 265 565.041 269.3C565.041 277.7 566.341 284.15 568.941 288.65C571.641 293.15 575.441 295.4 580.341 295.4Z" fill="#FFC947"/>
</g>
<defs>
<filter id="filter0_d_1_10" x="0.507629" y="0.249985" width="623.633" height="320.7" filterUnits="userSpaceOnUse" color-interpolation-filters="sRGB">
<feFlood flood-opacity="0" result="BackgroundImageFix"/>
<feColorMatrix in="SourceAlpha" type="matrix" values="0 0 0 0 0 0 0 0 0 0 0 0 0 0 0 0 0 0 127 0" result="hardAlpha"/>
<feOffset dy="4"/>
<feGaussianBlur stdDeviation="2"/>
<feComposite in2="hardAlpha" operator="out"/>
<feColorMatrix type="matrix" values="0 0 0 0 0 0 0 0 0 0 0 0 0 0 0 0 0 0 0.25 0"/>
<feBlend mode="normal" in2="BackgroundImageFix" result="effect1_dropShadow_1_10"/>
<feBlend mode="normal" in="SourceGraphic" in2="effect1_dropShadow_1_10" result="shape"/>
</filter>
</defs>
</svg>
