<svg width="397" height="60" viewBox="0 0 397 60" fill="none" xmlns="http://www.w3.org/2000/svg">
<g filter="url(#filter0_d_1_9)">
<path d="M6.56914 12.15L4.86914 9.8L5.06914 6.3H19.4191L19.7191 11.05L16.1191 12L22.3191 31.35L27.2691 15.95L25.0691 9.5L25.2691 6.3H38.5691L38.8691 11.05L35.5691 12L41.7191 31.35L47.4691 13.65C47.5691 13.3833 47.6191 13.15 47.6191 12.95C47.6191 12.5167 47.4025 12.2333 46.9691 12.1L43.5691 10.7L43.8691 6.3H56.9691L57.2191 10.55L55.1691 13.35L44.6691 40.2L35.9191 41.05L30.6691 25.75L25.2691 40.2L16.0191 41.05L6.56914 12.15ZM57.7766 35.25L60.8766 34.35V10.4C60.8766 9.66667 60.8266 9.2 60.7266 9C60.6266 8.76667 60.3599 8.51666 59.9266 8.25L57.7266 7.1L57.8766 3.3L59.4266 3.05C63.8266 2.25 66.9099 1.81667 68.6766 1.75C68.9766 2.55 69.1932 3.41666 69.3266 4.35V15.75C71.1599 14.9167 72.7099 14.3167 73.9766 13.95C75.2766 13.55 76.5599 13.35 77.8266 13.35C83.0266 13.35 85.6266 16.5167 85.6266 22.85V32.7C85.6266 33.4 85.6766 33.8667 85.7766 34.1C85.8766 34.3333 86.1599 34.5833 86.6266 34.85L89.0266 36.25L88.8266 40H75.0266L74.7766 35.25L77.2266 34.55V25.05C77.2266 23.5833 77.1766 22.55 77.0766 21.95C77.0099 21.3167 76.7432 20.8333 76.2766 20.5C75.8099 20.1667 75.0266 20 73.9266 20C72.8599 20 71.3266 20.1833 69.3266 20.55V32.7C69.3266 33.4 69.3766 33.8667 69.4766 34.1C69.5766 34.3333 69.8432 34.5833 70.2766 34.85L72.7266 36.25L72.5266 40H58.0266L57.7766 35.25ZM96.9844 40.65C94.7177 40.65 92.901 40.0333 91.5344 38.8C90.1677 37.5333 89.4844 35.9167 89.4844 33.95C89.4844 31.3167 90.801 29.25 93.4344 27.75C96.101 26.25 99.9677 25.4 105.034 25.2C105.034 23.6333 104.901 22.4833 104.634 21.75C104.401 20.9833 103.951 20.4667 103.284 20.2C102.651 19.9 101.668 19.75 100.334 19.75C98.9677 19.75 98.001 19.8 97.4344 19.9L95.3844 23.95L91.6844 23.7C91.1177 21.0333 90.7177 18.2667 90.4844 15.4C92.351 14.7667 94.3844 14.2667 96.5844 13.9C98.8177 13.5333 100.901 13.35 102.834 13.35C106.368 13.35 108.901 14.05 110.434 15.45C111.968 16.8167 112.734 19.1 112.734 22.3V32.75C112.734 33.35 112.784 33.7667 112.884 34C113.018 34.2333 113.284 34.4667 113.684 34.7L115.684 35.85L115.484 38.95C111.618 39.85 108.568 40.35 106.334 40.45C106.268 40.25 106.168 39.9 106.034 39.4C105.901 38.8667 105.784 38.3667 105.684 37.9C104.384 38.7333 102.951 39.4 101.384 39.9C99.851 40.4 98.3844 40.65 96.9844 40.65ZM100.334 35C101.668 35 103.284 34.55 105.184 33.65L104.984 29.85C104.184 29.7833 103.651 29.75 103.384 29.75C102.484 29.75 101.434 29.85 100.234 30.05C99.0344 30.2167 98.0844 30.4167 97.3844 30.65C97.2844 31.0833 97.2344 31.4833 97.2344 31.85C97.2344 32.85 97.501 33.6333 98.0344 34.2C98.601 34.7333 99.3677 35 100.334 35ZM127.002 40.65C124.069 40.65 121.902 39.9333 120.502 38.5C119.102 37.0333 118.402 34.8167 118.402 31.85V19.7H114.902V16.05L123.902 7.85L126.802 8.2V13.85H135.202V19.75H126.802V30.05C126.802 31.65 127.019 32.7167 127.452 33.25C127.919 33.7833 128.802 34.05 130.102 34.05C131.202 34.05 132.736 33.9 134.702 33.6L135.302 38.7C134.102 39.2667 132.752 39.7333 131.252 40.1C129.786 40.4667 128.369 40.65 127.002 40.65ZM155.956 40.65C152.756 40.65 150.256 39.45 148.456 37.05C146.656 34.65 145.756 31.4333 145.756 27.4C145.756 22.7667 146.973 19.2667 149.406 16.9C151.873 14.5333 155.373 13.35 159.906 13.35C160.173 13.35 161.039 13.3833 162.506 13.45V10.45C162.506 9.71667 162.456 9.23333 162.356 9C162.256 8.76667 161.973 8.51666 161.506 8.25L159.256 7.1L159.506 3.3C162.706 2.73333 165.073 2.35 166.606 2.15C168.139 1.91666 169.356 1.78333 170.256 1.75C170.556 2.51666 170.773 3.38333 170.906 4.35V32.8C170.906 33.4 170.956 33.8167 171.056 34.05C171.189 34.2833 171.473 34.5167 171.906 34.75L173.806 35.9L173.606 39C170.339 39.8333 167.139 40.3333 164.006 40.5C163.773 39.8667 163.539 39.1 163.306 38.2C161.039 39.8333 158.589 40.65 155.956 40.65ZM158.856 34.25C159.956 34.25 161.189 33.8833 162.556 33.15V20.2C161.556 19.7667 160.273 19.55 158.706 19.55C157.439 19.55 156.223 19.7167 155.056 20.05C154.789 20.6833 154.573 21.55 154.406 22.65C154.273 23.75 154.206 24.9667 154.206 26.3C154.206 29.0333 154.573 31.05 155.306 32.35C156.073 33.6167 157.256 34.25 158.856 34.25ZM176.799 3L185.299 0.749999L187.349 8.35L178.899 10.65L176.799 3ZM174.699 35.4L178.199 34.35V22.2C178.199 21.4667 178.133 21 177.999 20.8C177.899 20.5667 177.616 20.3167 177.149 20.05L174.949 18.85L175.199 15.1C177.966 14.5667 180.099 14.1833 181.599 13.95C183.133 13.6833 184.533 13.5333 185.799 13.5C186.233 14.9333 186.499 16 186.599 16.7V32.7C186.599 33.4 186.649 33.8667 186.749 34.1C186.849 34.3333 187.133 34.5833 187.599 34.85L190.049 36.25L189.849 40H174.849L174.699 35.4ZM200.733 40.65C197.533 40.65 195.033 39.45 193.233 37.05C191.433 34.65 190.533 31.4333 190.533 27.4C190.533 22.7667 191.75 19.2667 194.183 16.9C196.65 14.5333 200.15 13.35 204.683 13.35C204.95 13.35 205.817 13.3833 207.283 13.45V10.45C207.283 9.71667 207.233 9.23333 207.133 9C207.033 8.76667 206.75 8.51666 206.283 8.25L204.033 7.1L204.283 3.3C207.483 2.73333 209.85 2.35 211.383 2.15C212.917 1.91666 214.133 1.78333 215.033 1.75C215.333 2.51666 215.55 3.38333 215.683 4.35V32.8C215.683 33.4 215.733 33.8167 215.833 34.05C215.967 34.2833 216.25 34.5167 216.683 34.75L218.583 35.9L218.383 39C215.117 39.8333 211.917 40.3333 208.783 40.5C208.55 39.8667 208.317 39.1 208.083 38.2C205.817 39.8333 203.367 40.65 200.733 40.65ZM203.633 34.25C204.733 34.25 205.967 33.8833 207.333 33.15V20.2C206.333 19.7667 205.05 19.55 203.483 19.55C202.217 19.55 201 19.7167 199.833 20.05C199.567 20.6833 199.35 21.55 199.183 22.65C199.05 23.75 198.983 24.9667 198.983 26.3C198.983 29.0333 199.35 31.05 200.083 32.35C200.85 33.6167 202.033 34.25 203.633 34.25ZM236.479 51.45C234.079 49.85 231.946 47.7833 230.079 45.25L235.629 39.8L228.379 20.7C228.013 19.8 227.763 19.2167 227.629 18.95C227.496 18.6833 227.246 18.3167 226.879 17.85L226.029 16.75L226.279 13.85H239.079L239.579 18.1L236.679 18.8L240.779 31.35L245.379 19.85C245.446 19.65 245.479 19.5 245.479 19.4C245.479 19.1 245.346 18.9 245.079 18.8L242.729 17.8L243.179 13.85H252.679L253.129 17.9L246.729 31.85C244.429 36.8833 242.529 40.8333 241.029 43.7C239.529 46.5667 238.013 49.15 236.479 51.45ZM266.491 40.65C262.257 40.65 259.091 39.5667 256.991 37.4C254.924 35.2333 253.891 31.9167 253.891 27.45C253.891 24.5833 254.407 22.0833 255.441 19.95C256.507 17.8167 258.024 16.1833 259.991 15.05C261.957 13.9167 264.274 13.35 266.941 13.35C275.574 13.35 279.891 17.8167 279.891 26.75C279.891 31.1167 278.707 34.5333 276.341 37C274.007 39.4333 270.724 40.65 266.491 40.65ZM267.291 34.8C267.957 34.8 268.541 34.75 269.041 34.65C269.541 34.5167 270.074 34.3167 270.641 34.05C270.841 33.2833 271.007 32.3 271.141 31.1C271.274 29.9 271.341 28.75 271.341 27.65C271.341 24.95 270.907 22.9 270.041 21.5C269.207 20.1 267.957 19.4 266.291 19.4C265.191 19.4 264.074 19.55 262.941 19.85C262.707 20.35 262.524 21.1667 262.391 22.3C262.257 23.4 262.191 24.6667 262.191 26.1C262.191 28.9 262.624 31.05 263.491 32.55C264.391 34.05 265.657 34.8 267.291 34.8ZM292.079 40.7C289.413 40.7 287.429 39.9167 286.129 38.35C284.829 36.75 284.179 34.35 284.179 31.15V22.2C284.179 21.4667 284.113 21 283.979 20.8C283.879 20.5667 283.596 20.3167 283.129 20.05L280.879 18.85L281.129 15.1C281.596 15.0333 281.929 14.9667 282.129 14.9C282.496 14.8333 283.796 14.6 286.029 14.2C288.296 13.8 290.179 13.5667 291.679 13.5C292.046 14.3333 292.329 15.3 292.529 16.4V29C292.529 30.4667 292.563 31.5 292.629 32.1C292.729 32.7 292.996 33.1667 293.429 33.5C293.896 33.8 294.679 33.95 295.779 33.95C297.379 33.95 298.929 33.6667 300.429 33.1V22.2C300.429 21.4667 300.379 21 300.279 20.8C300.179 20.5667 299.913 20.3167 299.479 20.05L297.279 18.85L297.479 15.1C300.179 14.6 302.279 14.2167 303.779 13.95C305.313 13.6833 306.713 13.5333 307.979 13.5C308.346 14.3333 308.629 15.3 308.829 16.4V32.8C308.829 33.4 308.879 33.8167 308.979 34.05C309.079 34.2833 309.313 34.5167 309.679 34.75L311.679 35.9L311.529 39C310.096 39.3667 308.446 39.7 306.579 40C304.713 40.2667 302.979 40.4333 301.379 40.5C301.246 40.1 301.096 39.6 300.929 39C300.896 38.7333 300.813 38.4167 300.679 38.05H300.529C299.163 38.85 297.713 39.5 296.179 40C294.679 40.4667 293.313 40.7 292.079 40.7ZM331.647 40.65C328.447 40.65 325.947 39.45 324.147 37.05C322.347 34.65 321.447 31.4333 321.447 27.4C321.447 22.7667 322.664 19.2667 325.097 16.9C327.564 14.5333 331.064 13.35 335.597 13.35C335.864 13.35 336.731 13.3833 338.197 13.45V10.45C338.197 9.71667 338.147 9.23333 338.047 9C337.947 8.76667 337.664 8.51666 337.197 8.25L334.947 7.1L335.197 3.3C338.397 2.73333 340.764 2.35 342.297 2.15C343.831 1.91666 345.047 1.78333 345.947 1.75C346.247 2.51666 346.464 3.38333 346.597 4.35V32.8C346.597 33.4 346.647 33.8167 346.747 34.05C346.881 34.2833 347.164 34.5167 347.597 34.75L349.497 35.9L349.297 39C346.031 39.8333 342.831 40.3333 339.697 40.5C339.464 39.8667 339.231 39.1 338.997 38.2C336.731 39.8333 334.281 40.65 331.647 40.65ZM334.547 34.25C335.647 34.25 336.881 33.8833 338.247 33.15V20.2C337.247 19.7667 335.964 19.55 334.397 19.55C333.131 19.55 331.914 19.7167 330.747 20.05C330.481 20.6833 330.264 21.55 330.097 22.65C329.964 23.75 329.897 24.9667 329.897 26.3C329.897 29.0333 330.264 31.05 330.997 32.35C331.764 33.6167 332.947 34.25 334.547 34.25ZM362.735 40.65C358.501 40.65 355.335 39.5667 353.235 37.4C351.168 35.2333 350.135 31.9167 350.135 27.45C350.135 24.5833 350.651 22.0833 351.685 19.95C352.751 17.8167 354.268 16.1833 356.235 15.05C358.201 13.9167 360.518 13.35 363.185 13.35C371.818 13.35 376.135 17.8167 376.135 26.75C376.135 31.1167 374.951 34.5333 372.585 37C370.251 39.4333 366.968 40.65 362.735 40.65ZM363.535 34.8C364.201 34.8 364.785 34.75 365.285 34.65C365.785 34.5167 366.318 34.3167 366.885 34.05C367.085 33.2833 367.251 32.3 367.385 31.1C367.518 29.9 367.585 28.75 367.585 27.65C367.585 24.95 367.151 22.9 366.285 21.5C365.451 20.1 364.201 19.4 362.535 19.4C361.435 19.4 360.318 19.55 359.185 19.85C358.951 20.35 358.768 21.1667 358.635 22.3C358.501 23.4 358.435 24.6667 358.435 26.1C358.435 28.9 358.868 31.05 359.735 32.55C360.635 34.05 361.901 34.8 363.535 34.8ZM381.933 30.5C380.967 28.6333 380.483 27.0333 380.483 25.7C380.483 24.1667 381.2 22.4667 382.633 20.6L384.433 18.3C384.467 17.1667 384.283 16.3167 383.883 15.75C383.483 15.15 382.883 14.7167 382.083 14.45C381.283 14.15 379.95 13.7833 378.083 13.35L376.283 12.9L376.383 11.4C377.65 8.93333 379 6.76667 380.433 4.9C384.467 5.56666 387.517 6.46667 389.583 7.6C391.65 8.7 392.683 10.3167 392.683 12.45C392.683 13.6833 392.367 14.8 391.733 15.8C391.133 16.7667 390.25 17.8667 389.083 19.1L388.183 20.1C387.583 20.7667 387.15 21.3333 386.883 21.8C386.617 22.2333 386.483 22.6667 386.483 23.1C386.483 23.5333 386.6 24 386.833 24.5C387.1 24.9667 387.567 25.6833 388.233 26.65C386.4 27.9833 384.3 29.2667 381.933 30.5ZM379.483 34.65L386.933 32.7L388.783 39.6L381.383 41.6L379.483 34.65Z" fill="#EFEFEF"/>
</g>
<defs>
<filter id="filter0_d_1_9" x="0.869141" y="0.75" width="395.814" height="58.7" filterUnits="userSpaceOnUse" color-interpolation-filters="sRGB">
<feFlood flood-opacity="0" result="BackgroundImageFix"/>
<feColorMatrix in="SourceAlpha" type="matrix" values="0 0 0 0 0 0 0 0 0 0 0 0 0 0 0 0 0 0 127 0" result="hardAlpha"/>
<feOffset dy="4"/>
<feGaussianBlur stdDeviation="2"/>
<feComposite in2="hardAlpha" operator="out"/>
<feColorMatrix type="matrix" values="0 0 0 0 0 0 0 0 0 0 0 0 0 0 0 0 0 0 0.25 0"/>
<feBlend mode="normal" in2="BackgroundImageFix" result="effect1_dropShadow_1_9"/>
<feBlend mode="normal" in="SourceGraphic" in2="effect1_dropShadow_1_9" result="shape"/>
</filter>
</defs>
</svg>
