<svg width="367" height="59" viewBox="0 0 367 59" fill="none" xmlns="http://www.w3.org/2000/svg">
<g filter="url(#filter0_d_1_9)">
<path d="M7.08691 19.7C6.72025 18.8 6.47025 18.2167 6.33691 17.95C6.20358 17.6833 5.95358 17.3167 5.58691 16.85L4.73691 15.75L4.98691 12.85H17.6369L18.1369 17.1L15.3869 17.75L18.7869 29.9L23.7369 13.25L28.8869 12.55L34.5869 30.35L37.7869 18.85C37.8536 18.65 37.8869 18.5 37.8869 18.4C37.8869 18.1 37.7369 17.9 37.4369 17.8L35.0369 16.8L35.5369 12.85H45.0369L45.5369 16.75L36.9369 39.25L29.7369 39.8L25.5869 25.9L21.0369 39.25L13.8369 39.8L7.08691 19.7ZM45.2053 34.25L48.3053 33.35V9.4C48.3053 8.66667 48.2553 8.2 48.1553 8C48.0553 7.76667 47.7886 7.51666 47.3553 7.25L45.1553 6.1L45.3053 2.3L46.8553 2.05C51.2553 1.25 54.3386 0.816666 56.1053 0.749998C56.4053 1.55 56.6219 2.41666 56.7553 3.35V14.75C58.5886 13.9167 60.1386 13.3167 61.4053 12.95C62.7053 12.55 63.9886 12.35 65.2553 12.35C70.4553 12.35 73.0553 15.5167 73.0553 21.85V31.7C73.0553 32.4 73.1053 32.8667 73.2053 33.1C73.3053 33.3333 73.5886 33.5833 74.0553 33.85L76.4553 35.25L76.2553 39H62.4553L62.2053 34.25L64.6553 33.55V24.05C64.6553 22.5833 64.6053 21.55 64.5053 20.95C64.4386 20.3167 64.1719 19.8333 63.7053 19.5C63.2386 19.1667 62.4553 19 61.3553 19C60.2886 19 58.7553 19.1833 56.7553 19.55V31.7C56.7553 32.4 56.8053 32.8667 56.9053 33.1C57.0053 33.3333 57.2719 33.5833 57.7053 33.85L60.1553 35.25L59.9553 39H45.4553L45.2053 34.25ZM84.4131 39.65C82.1464 39.65 80.3298 39.0333 78.9631 37.8C77.5964 36.5333 76.9131 34.9167 76.9131 32.95C76.9131 30.3167 78.2298 28.25 80.8631 26.75C83.5298 25.25 87.3964 24.4 92.4631 24.2C92.4631 22.6333 92.3298 21.4833 92.0631 20.75C91.8298 19.9833 91.3798 19.4667 90.7131 19.2C90.0798 18.9 89.0964 18.75 87.7631 18.75C86.3964 18.75 85.4298 18.8 84.8631 18.9L82.8131 22.95L79.1131 22.7C78.5464 20.0333 78.1464 17.2667 77.9131 14.4C79.7798 13.7667 81.8131 13.2667 84.0131 12.9C86.2464 12.5333 88.3298 12.35 90.2631 12.35C93.7964 12.35 96.3298 13.05 97.8631 14.45C99.3964 15.8167 100.163 18.1 100.163 21.3V31.75C100.163 32.35 100.213 32.7667 100.313 33C100.446 33.2333 100.713 33.4667 101.113 33.7L103.113 34.85L102.913 37.95C99.0464 38.85 95.9964 39.35 93.7631 39.45C93.6964 39.25 93.5964 38.9 93.4631 38.4C93.3298 37.8667 93.2131 37.3667 93.1131 36.9C91.8131 37.7333 90.3798 38.4 88.8131 38.9C87.2798 39.4 85.8131 39.65 84.4131 39.65ZM87.7631 34C89.0964 34 90.7131 33.55 92.6131 32.65L92.4131 28.85C91.6131 28.7833 91.0798 28.75 90.8131 28.75C89.9131 28.75 88.8631 28.85 87.6631 29.05C86.4631 29.2167 85.5131 29.4167 84.8131 29.65C84.7131 30.0833 84.6631 30.4833 84.6631 30.85C84.6631 31.85 84.9298 32.6333 85.4631 33.2C86.0298 33.7333 86.7964 34 87.7631 34ZM114.431 39.65C111.498 39.65 109.331 38.9333 107.931 37.5C106.531 36.0333 105.831 33.8167 105.831 30.85V18.7H102.331V15.05L111.331 6.85L114.231 7.2V12.85H122.631V18.75H114.231V29.05C114.231 30.65 114.448 31.7167 114.881 32.25C115.348 32.7833 116.231 33.05 117.531 33.05C118.631 33.05 120.164 32.9 122.131 32.6L122.731 37.7C121.531 38.2667 120.181 38.7333 118.681 39.1C117.214 39.4667 115.798 39.65 114.431 39.65ZM143.385 39.65C140.185 39.65 137.685 38.45 135.885 36.05C134.085 33.65 133.185 30.4333 133.185 26.4C133.185 21.7667 134.401 18.2667 136.835 15.9C139.301 13.5333 142.801 12.35 147.335 12.35C147.601 12.35 148.468 12.3833 149.935 12.45V9.45C149.935 8.71667 149.885 8.23333 149.785 8C149.685 7.76667 149.401 7.51666 148.935 7.25L146.685 6.1L146.935 2.3C150.135 1.73333 152.501 1.35 154.035 1.15C155.568 0.916664 156.785 0.783331 157.685 0.749998C157.985 1.51666 158.201 2.38333 158.335 3.35V31.8C158.335 32.4 158.385 32.8167 158.485 33.05C158.618 33.2833 158.901 33.5167 159.335 33.75L161.235 34.9L161.035 38C157.768 38.8333 154.568 39.3333 151.435 39.5C151.201 38.8667 150.968 38.1 150.735 37.2C148.468 38.8333 146.018 39.65 143.385 39.65ZM146.285 33.25C147.385 33.25 148.618 32.8833 149.985 32.15V19.2C148.985 18.7667 147.701 18.55 146.135 18.55C144.868 18.55 143.651 18.7167 142.485 19.05C142.218 19.6833 142.001 20.55 141.835 21.65C141.701 22.75 141.635 23.9667 141.635 25.3C141.635 28.0333 142.001 30.05 142.735 31.35C143.501 32.6167 144.685 33.25 146.285 33.25ZM174.472 39.65C170.239 39.65 167.072 38.5667 164.972 36.4C162.905 34.2333 161.872 30.9167 161.872 26.45C161.872 23.5833 162.389 21.0833 163.422 18.95C164.489 16.8167 166.005 15.1833 167.972 14.05C169.939 12.9167 172.255 12.35 174.922 12.35C183.555 12.35 187.872 16.8167 187.872 25.75C187.872 30.1167 186.689 33.5333 184.322 36C181.989 38.4333 178.705 39.65 174.472 39.65ZM175.272 33.8C175.939 33.8 176.522 33.75 177.022 33.65C177.522 33.5167 178.055 33.3167 178.622 33.05C178.822 32.2833 178.989 31.3 179.122 30.1C179.255 28.9 179.322 27.75 179.322 26.65C179.322 23.95 178.889 21.9 178.022 20.5C177.189 19.1 175.939 18.4 174.272 18.4C173.172 18.4 172.055 18.55 170.922 18.85C170.689 19.35 170.505 20.1667 170.372 21.3C170.239 22.4 170.172 23.6667 170.172 25.1C170.172 27.9 170.605 30.05 171.472 31.55C172.372 33.05 173.639 33.8 175.272 33.8ZM206.012 50.45C203.612 48.85 201.478 46.7833 199.612 44.25L205.162 38.8L197.912 19.7C197.545 18.8 197.295 18.2167 197.162 17.95C197.028 17.6833 196.778 17.3167 196.412 16.85L195.562 15.75L195.812 12.85H208.612L209.112 17.1L206.212 17.8L210.312 30.35L214.912 18.85C214.978 18.65 215.012 18.5 215.012 18.4C215.012 18.1 214.878 17.9 214.612 17.8L212.262 16.8L212.712 12.85H222.212L222.662 16.9L216.262 30.85C213.962 35.8833 212.062 39.8333 210.562 42.7C209.062 45.5667 207.545 48.15 206.012 50.45ZM236.023 39.65C231.79 39.65 228.623 38.5667 226.523 36.4C224.456 34.2333 223.423 30.9167 223.423 26.45C223.423 23.5833 223.94 21.0833 224.973 18.95C226.04 16.8167 227.556 15.1833 229.523 14.05C231.49 12.9167 233.806 12.35 236.473 12.35C245.106 12.35 249.423 16.8167 249.423 25.75C249.423 30.1167 248.24 33.5333 245.873 36C243.54 38.4333 240.256 39.65 236.023 39.65ZM236.823 33.8C237.49 33.8 238.073 33.75 238.573 33.65C239.073 33.5167 239.606 33.3167 240.173 33.05C240.373 32.2833 240.54 31.3 240.673 30.1C240.806 28.9 240.873 27.75 240.873 26.65C240.873 23.95 240.44 21.9 239.573 20.5C238.74 19.1 237.49 18.4 235.823 18.4C234.723 18.4 233.606 18.55 232.473 18.85C232.24 19.35 232.056 20.1667 231.923 21.3C231.79 22.4 231.723 23.6667 231.723 25.1C231.723 27.9 232.156 30.05 233.023 31.55C233.923 33.05 235.19 33.8 236.823 33.8ZM261.612 39.7C258.945 39.7 256.962 38.9167 255.662 37.35C254.362 35.75 253.712 33.35 253.712 30.15V21.2C253.712 20.4667 253.645 20 253.512 19.8C253.412 19.5667 253.128 19.3167 252.662 19.05L250.412 17.85L250.662 14.1C251.128 14.0333 251.462 13.9667 251.662 13.9C252.028 13.8333 253.328 13.6 255.562 13.2C257.828 12.8 259.712 12.5667 261.212 12.5C261.578 13.3333 261.862 14.3 262.062 15.4V28C262.062 29.4667 262.095 30.5 262.162 31.1C262.262 31.7 262.528 32.1667 262.962 32.5C263.428 32.8 264.212 32.95 265.312 32.95C266.912 32.95 268.462 32.6667 269.962 32.1V21.2C269.962 20.4667 269.912 20 269.812 19.8C269.712 19.5667 269.445 19.3167 269.012 19.05L266.812 17.85L267.012 14.1C269.712 13.6 271.812 13.2167 273.312 12.95C274.845 12.6833 276.245 12.5333 277.512 12.5C277.878 13.3333 278.162 14.3 278.362 15.4V31.8C278.362 32.4 278.412 32.8167 278.512 33.05C278.612 33.2833 278.845 33.5167 279.212 33.75L281.212 34.9L281.062 38C279.628 38.3667 277.978 38.7 276.112 39C274.245 39.2667 272.512 39.4333 270.912 39.5C270.778 39.1 270.628 38.6 270.462 38C270.428 37.7333 270.345 37.4167 270.212 37.05H270.062C268.695 37.85 267.245 38.5 265.712 39C264.212 39.4667 262.845 39.7 261.612 39.7ZM301.179 39.65C297.979 39.65 295.479 38.45 293.679 36.05C291.879 33.65 290.979 30.4333 290.979 26.4C290.979 21.7667 292.196 18.2667 294.629 15.9C297.096 13.5333 300.596 12.35 305.129 12.35C305.396 12.35 306.263 12.3833 307.729 12.45V9.45C307.729 8.71667 307.679 8.23333 307.579 8C307.479 7.76667 307.196 7.51666 306.729 7.25L304.479 6.1L304.729 2.3C307.929 1.73333 310.296 1.35 311.829 1.15C313.363 0.916664 314.579 0.783331 315.479 0.749998C315.779 1.51666 315.996 2.38333 316.129 3.35V31.8C316.129 32.4 316.179 32.8167 316.279 33.05C316.413 33.2833 316.696 33.5167 317.129 33.75L319.029 34.9L318.829 38C315.563 38.8333 312.363 39.3333 309.229 39.5C308.996 38.8667 308.763 38.1 308.529 37.2C306.263 38.8333 303.813 39.65 301.179 39.65ZM304.079 33.25C305.179 33.25 306.413 32.8833 307.779 32.15V19.2C306.779 18.7667 305.496 18.55 303.929 18.55C302.663 18.55 301.446 18.7167 300.279 19.05C300.013 19.6833 299.796 20.55 299.629 21.65C299.496 22.75 299.429 23.9667 299.429 25.3C299.429 28.0333 299.796 30.05 300.529 31.35C301.296 32.6167 302.479 33.25 304.079 33.25ZM332.267 39.65C328.034 39.65 324.867 38.5667 322.767 36.4C320.7 34.2333 319.667 30.9167 319.667 26.45C319.667 23.5833 320.184 21.0833 321.217 18.95C322.284 16.8167 323.8 15.1833 325.767 14.05C327.734 12.9167 330.05 12.35 332.717 12.35C341.35 12.35 345.667 16.8167 345.667 25.75C345.667 30.1167 344.484 33.5333 342.117 36C339.784 38.4333 336.5 39.65 332.267 39.65ZM333.067 33.8C333.734 33.8 334.317 33.75 334.817 33.65C335.317 33.5167 335.85 33.3167 336.417 33.05C336.617 32.2833 336.784 31.3 336.917 30.1C337.05 28.9 337.117 27.75 337.117 26.65C337.117 23.95 336.684 21.9 335.817 20.5C334.984 19.1 333.734 18.4 332.067 18.4C330.967 18.4 329.85 18.55 328.717 18.85C328.484 19.35 328.3 20.1667 328.167 21.3C328.034 22.4 327.967 23.6667 327.967 25.1C327.967 27.9 328.4 30.05 329.267 31.55C330.167 33.05 331.434 33.8 333.067 33.8ZM351.465 29.5C350.499 27.6333 350.015 26.0333 350.015 24.7C350.015 23.1667 350.732 21.4667 352.165 19.6L353.965 17.3C353.999 16.1667 353.815 15.3167 353.415 14.75C353.015 14.15 352.415 13.7167 351.615 13.45C350.815 13.15 349.482 12.7833 347.615 12.35L345.815 11.9L345.915 10.4C347.182 7.93333 348.532 5.76667 349.965 3.9C353.999 4.56666 357.049 5.46667 359.115 6.6C361.182 7.7 362.215 9.31667 362.215 11.45C362.215 12.6833 361.899 13.8 361.265 14.8C360.665 15.7667 359.782 16.8667 358.615 18.1L357.715 19.1C357.115 19.7667 356.682 20.3333 356.415 20.8C356.149 21.2333 356.015 21.6667 356.015 22.1C356.015 22.5333 356.132 23 356.365 23.5C356.632 23.9667 357.099 24.6833 357.765 25.65C355.932 26.9833 353.832 28.2667 351.465 29.5ZM349.015 33.65L356.465 31.7L358.315 38.6L350.915 40.6L349.015 33.65Z" fill="#EFEFEF"/>
</g>
<defs>
<filter id="filter0_d_1_9" x="0.736908" y="0.75" width="365.479" height="57.7" filterUnits="userSpaceOnUse" color-interpolation-filters="sRGB">
<feFlood flood-opacity="0" result="BackgroundImageFix"/>
<feColorMatrix in="SourceAlpha" type="matrix" values="0 0 0 0 0 0 0 0 0 0 0 0 0 0 0 0 0 0 127 0" result="hardAlpha"/>
<feOffset dy="4"/>
<feGaussianBlur stdDeviation="2"/>
<feComposite in2="hardAlpha" operator="out"/>
<feColorMatrix type="matrix" values="0 0 0 0 0 0 0 0 0 0 0 0 0 0 0 0 0 0 0.25 0"/>
<feBlend mode="normal" in2="BackgroundImageFix" result="effect1_dropShadow_1_9"/>
<feBlend mode="normal" in="SourceGraphic" in2="effect1_dropShadow_1_9" result="shape"/>
</filter>
</defs>
</svg>
