<svg width="311" height="59" viewBox="0 0 311 59" fill="none" xmlns="http://www.w3.org/2000/svg">
<g filter="url(#filter0_d_1_9)">
<path d="M6.51543 11.15L4.81543 8.8L5.01543 5.3H19.3654L19.6654 10.05L16.0654 11L22.2654 30.35L27.2154 14.95L25.0154 8.5L25.2154 5.3H38.5154L38.8154 10.05L35.5154 11L41.6654 30.35L47.4154 12.65C47.5154 12.3833 47.5654 12.15 47.5654 11.95C47.5654 11.5167 47.3488 11.2333 46.9154 11.1L43.5154 9.7L43.8154 5.3H56.9154L57.1654 9.55L55.1154 12.35L44.6154 39.2L35.8654 40.05L30.6154 24.75L25.2154 39.2L15.9654 40.05L6.51543 11.15ZM57.7229 34.25L60.8229 33.35V9.4C60.8229 8.66667 60.7729 8.2 60.6729 8C60.5729 7.76667 60.3062 7.51666 59.8729 7.25L57.6729 6.1L57.8229 2.3L59.3729 2.05C63.7729 1.25 66.8562 0.816666 68.6229 0.749998C68.9229 1.55 69.1395 2.41666 69.2729 3.35V14.75C71.1062 13.9167 72.6562 13.3167 73.9229 12.95C75.2229 12.55 76.5062 12.35 77.7729 12.35C82.9729 12.35 85.5729 15.5167 85.5729 21.85V31.7C85.5729 32.4 85.6229 32.8667 85.7229 33.1C85.8229 33.3333 86.1062 33.5833 86.5729 33.85L88.9729 35.25L88.7729 39H74.9729L74.7229 34.25L77.1729 33.55V24.05C77.1729 22.5833 77.1229 21.55 77.0229 20.95C76.9562 20.3167 76.6895 19.8333 76.2229 19.5C75.7562 19.1667 74.9729 19 73.8729 19C72.8062 19 71.2729 19.1833 69.2729 19.55V31.7C69.2729 32.4 69.3229 32.8667 69.4229 33.1C69.5229 33.3333 69.7895 33.5833 70.2229 33.85L72.6729 35.25L72.4729 39H57.9729L57.7229 34.25ZM101.781 39.65C97.5473 39.65 94.3807 38.5667 92.2807 36.4C90.214 34.2333 89.1807 30.9167 89.1807 26.45C89.1807 23.5833 89.6973 21.0833 90.7307 18.95C91.7973 16.8167 93.314 15.1833 95.2807 14.05C97.2473 12.9167 99.564 12.35 102.231 12.35C110.864 12.35 115.181 16.8167 115.181 25.75C115.181 30.1167 113.997 33.5333 111.631 36C109.297 38.4333 106.014 39.65 101.781 39.65ZM102.581 33.8C103.247 33.8 103.831 33.75 104.331 33.65C104.831 33.5167 105.364 33.3167 105.931 33.05C106.131 32.2833 106.297 31.3 106.431 30.1C106.564 28.9 106.631 27.75 106.631 26.65C106.631 23.95 106.197 21.9 105.331 20.5C104.497 19.1 103.247 18.4 101.581 18.4C100.481 18.4 99.364 18.55 98.2307 18.85C97.9973 19.35 97.814 20.1667 97.6807 21.3C97.5473 22.4 97.4807 23.6667 97.4807 25.1C97.4807 27.9 97.914 30.05 98.7807 31.55C99.6807 33.05 100.947 33.8 102.581 33.8ZM132.87 39.65C130.603 39.65 128.787 39.0333 127.42 37.8C126.053 36.5333 125.37 34.9167 125.37 32.95C125.37 30.3167 126.687 28.25 129.32 26.75C131.987 25.25 135.853 24.4 140.92 24.2C140.92 22.6333 140.787 21.4833 140.52 20.75C140.287 19.9833 139.837 19.4667 139.17 19.2C138.537 18.9 137.553 18.75 136.22 18.75C134.853 18.75 133.887 18.8 133.32 18.9L131.27 22.95L127.57 22.7C127.003 20.0333 126.603 17.2667 126.37 14.4C128.237 13.7667 130.27 13.2667 132.47 12.9C134.703 12.5333 136.787 12.35 138.72 12.35C142.253 12.35 144.787 13.05 146.32 14.45C147.853 15.8167 148.62 18.1 148.62 21.3V31.75C148.62 32.35 148.67 32.7667 148.77 33C148.903 33.2333 149.17 33.4667 149.57 33.7L151.57 34.85L151.37 37.95C147.503 38.85 144.453 39.35 142.22 39.45C142.153 39.25 142.053 38.9 141.92 38.4C141.787 37.8667 141.67 37.3667 141.57 36.9C140.27 37.7333 138.837 38.4 137.27 38.9C135.737 39.4 134.27 39.65 132.87 39.65ZM136.22 34C137.553 34 139.17 33.55 141.07 32.65L140.87 28.85C140.07 28.7833 139.537 28.75 139.27 28.75C138.37 28.75 137.32 28.85 136.12 29.05C134.92 29.2167 133.97 29.4167 133.27 29.65C133.17 30.0833 133.12 30.4833 133.12 30.85C133.12 31.85 133.387 32.6333 133.92 33.2C134.487 33.7333 135.253 34 136.22 34ZM152.406 34.25L155.456 33.35V21.2C155.456 20.4667 155.406 20 155.306 19.8C155.206 19.5667 154.939 19.3167 154.506 19.05L152.306 17.85L152.456 14.1C153.022 13.9667 153.506 13.8833 153.906 13.85C157.939 13.0167 160.922 12.5667 162.856 12.5C163.156 13.3667 163.439 14.45 163.706 15.75C165.706 14.1833 167.406 13.1 168.806 12.5H171.656C171.622 13.7667 171.539 15.15 171.406 16.65C171.272 18.1167 171.106 19.3 170.906 20.2C169.706 20.1333 168.822 20.1 168.256 20.1C166.856 20.1 165.406 20.1833 163.906 20.35V31.7C163.906 32.4 163.956 32.8667 164.056 33.1C164.156 33.3333 164.422 33.5833 164.856 33.85L167.856 35.45L167.656 39H152.656L152.406 34.25ZM184.295 39.6C180.395 39.6 177.378 38.4167 175.245 36.05C173.145 33.6833 172.095 30.4167 172.095 26.25C172.095 23.35 172.611 20.8667 173.645 18.8C174.678 16.7 176.145 15.1 178.045 14C179.945 12.9 182.161 12.35 184.695 12.35C188.461 12.35 191.345 13.55 193.345 15.95C195.378 18.35 196.345 21.7667 196.245 26.2L181.045 29C181.511 30.4 182.161 31.4333 182.995 32.1C183.861 32.7333 184.995 33.05 186.395 33.05C187.361 33.05 188.511 32.9167 189.845 32.65C191.178 32.35 192.528 31.95 193.895 31.45L195.045 36.4C193.811 37.3333 192.211 38.1 190.245 38.7C188.278 39.3 186.295 39.6 184.295 39.6ZM188.045 22C187.978 20.7333 187.611 19.8167 186.945 19.25C186.311 18.65 185.411 18.35 184.245 18.35C183.278 18.35 182.361 18.4833 181.495 18.75C180.795 20.3833 180.478 22.15 180.545 24.05L188.045 22ZM214.672 50.45C212.272 48.85 210.138 46.7833 208.272 44.25L213.822 38.8L206.572 19.7C206.205 18.8 205.955 18.2167 205.822 17.95C205.688 17.6833 205.438 17.3167 205.072 16.85L204.222 15.75L204.472 12.85H217.272L217.772 17.1L214.872 17.8L218.972 30.35L223.572 18.85C223.638 18.65 223.672 18.5 223.672 18.4C223.672 18.1 223.538 17.9 223.272 17.8L220.922 16.8L221.372 12.85H230.872L231.322 16.9L224.922 30.85C222.622 35.8833 220.722 39.8333 219.222 42.7C217.722 45.5667 216.205 48.15 214.672 50.45ZM244.683 39.65C240.45 39.65 237.283 38.5667 235.183 36.4C233.116 34.2333 232.083 30.9167 232.083 26.45C232.083 23.5833 232.6 21.0833 233.633 18.95C234.7 16.8167 236.216 15.1833 238.183 14.05C240.15 12.9167 242.466 12.35 245.133 12.35C253.766 12.35 258.083 16.8167 258.083 25.75C258.083 30.1167 256.9 33.5333 254.533 36C252.2 38.4333 248.916 39.65 244.683 39.65ZM245.483 33.8C246.15 33.8 246.733 33.75 247.233 33.65C247.733 33.5167 248.266 33.3167 248.833 33.05C249.033 32.2833 249.2 31.3 249.333 30.1C249.466 28.9 249.533 27.75 249.533 26.65C249.533 23.95 249.1 21.9 248.233 20.5C247.4 19.1 246.15 18.4 244.483 18.4C243.383 18.4 242.266 18.55 241.133 18.85C240.9 19.35 240.716 20.1667 240.583 21.3C240.45 22.4 240.383 23.6667 240.383 25.1C240.383 27.9 240.816 30.05 241.683 31.55C242.583 33.05 243.85 33.8 245.483 33.8ZM270.272 39.7C267.605 39.7 265.622 38.9167 264.322 37.35C263.022 35.75 262.372 33.35 262.372 30.15V21.2C262.372 20.4667 262.305 20 262.172 19.8C262.072 19.5667 261.788 19.3167 261.322 19.05L259.072 17.85L259.322 14.1C259.788 14.0333 260.122 13.9667 260.322 13.9C260.688 13.8333 261.988 13.6 264.222 13.2C266.488 12.8 268.372 12.5667 269.872 12.5C270.238 13.3333 270.522 14.3 270.722 15.4V28C270.722 29.4667 270.755 30.5 270.822 31.1C270.922 31.7 271.188 32.1667 271.622 32.5C272.088 32.8 272.872 32.95 273.972 32.95C275.572 32.95 277.122 32.6667 278.622 32.1V21.2C278.622 20.4667 278.572 20 278.472 19.8C278.372 19.5667 278.105 19.3167 277.672 19.05L275.472 17.85L275.672 14.1C278.372 13.6 280.472 13.2167 281.972 12.95C283.505 12.6833 284.905 12.5333 286.172 12.5C286.538 13.3333 286.822 14.3 287.022 15.4V31.8C287.022 32.4 287.072 32.8167 287.172 33.05C287.272 33.2833 287.505 33.5167 287.872 33.75L289.872 34.9L289.722 38C288.288 38.3667 286.638 38.7 284.772 39C282.905 39.2667 281.172 39.4333 279.572 39.5C279.438 39.1 279.288 38.6 279.122 38C279.088 37.7333 279.005 37.4167 278.872 37.05H278.722C277.355 37.85 275.905 38.5 274.372 39C272.872 39.4667 271.505 39.7 270.272 39.7ZM295.987 29.5C295.02 27.6333 294.537 26.0333 294.537 24.7C294.537 23.1667 295.254 21.4667 296.687 19.6L298.487 17.3C298.52 16.1667 298.337 15.3167 297.937 14.75C297.537 14.15 296.937 13.7167 296.137 13.45C295.337 13.15 294.004 12.7833 292.137 12.35L290.337 11.9L290.437 10.4C291.704 7.93333 293.054 5.76667 294.487 3.9C298.52 4.56666 301.57 5.46667 303.637 6.6C305.704 7.7 306.737 9.31667 306.737 11.45C306.737 12.6833 306.42 13.8 305.787 14.8C305.187 15.7667 304.304 16.8667 303.137 18.1L302.237 19.1C301.637 19.7667 301.204 20.3333 300.937 20.8C300.67 21.2333 300.537 21.6667 300.537 22.1C300.537 22.5333 300.654 23 300.887 23.5C301.154 23.9667 301.62 24.6833 302.287 25.65C300.454 26.9833 298.354 28.2667 295.987 29.5ZM293.537 33.65L300.987 31.7L302.837 38.6L295.437 40.6L293.537 33.65Z" fill="#EFEFEF"/>
</g>
<defs>
<filter id="filter0_d_1_9" x="0.81543" y="0.75" width="309.922" height="57.7" filterUnits="userSpaceOnUse" color-interpolation-filters="sRGB">
<feFlood flood-opacity="0" result="BackgroundImageFix"/>
<feColorMatrix in="SourceAlpha" type="matrix" values="0 0 0 0 0 0 0 0 0 0 0 0 0 0 0 0 0 0 127 0" result="hardAlpha"/>
<feOffset dy="4"/>
<feGaussianBlur stdDeviation="2"/>
<feComposite in2="hardAlpha" operator="out"/>
<feColorMatrix type="matrix" values="0 0 0 0 0 0 0 0 0 0 0 0 0 0 0 0 0 0 0.25 0"/>
<feBlend mode="normal" in2="BackgroundImageFix" result="effect1_dropShadow_1_9"/>
<feBlend mode="normal" in="SourceGraphic" in2="effect1_dropShadow_1_9" result="shape"/>
</filter>
</defs>
</svg>
