<svg width="688" height="50" viewBox="0 0 688 50" fill="none" xmlns="http://www.w3.org/2000/svg">
<path d="M3.01758 19.7C2.65091 18.8 2.40091 18.2167 2.26758 17.95C2.13424 17.6833 1.88424 17.3167 1.51758 16.85L0.667578 15.75L0.917578 12.85H13.5676L14.0676 17.1L11.3176 17.75L14.7176 29.9L19.6676 13.25L24.8176 12.55L30.5176 30.35L33.7176 18.85C33.7842 18.65 33.8176 18.5 33.8176 18.4C33.8176 18.1 33.6676 17.9 33.3676 17.8L30.9676 16.8L31.4676 12.85H40.9676L41.4676 16.75L32.8676 39.25L25.6676 39.8L21.5176 25.9L16.9676 39.25L9.76758 39.8L3.01758 19.7ZM41.1359 34.25L44.2359 33.35V9.4C44.2359 8.66667 44.1859 8.2 44.0859 8C43.9859 7.76667 43.7193 7.51666 43.2859 7.25L41.0859 6.1L41.2359 2.3L42.7859 2.05C47.1859 1.25 50.2693 0.816666 52.0359 0.749998C52.3359 1.55 52.5526 2.41666 52.6859 3.35V14.75C54.5193 13.9167 56.0693 13.3167 57.3359 12.95C58.6359 12.55 59.9193 12.35 61.1859 12.35C66.3859 12.35 68.9859 15.5167 68.9859 21.85V31.7C68.9859 32.4 69.0359 32.8667 69.1359 33.1C69.2359 33.3333 69.5193 33.5833 69.9859 33.85L72.3859 35.25L72.1859 39H58.3859L58.1359 34.25L60.5859 33.55V24.05C60.5859 22.5833 60.5359 21.55 60.4359 20.95C60.3693 20.3167 60.1026 19.8333 59.6359 19.5C59.1693 19.1667 58.3859 19 57.2859 19C56.2193 19 54.6859 19.1833 52.6859 19.55V31.7C52.6859 32.4 52.7359 32.8667 52.8359 33.1C52.9359 33.3333 53.2026 33.5833 53.6359 33.85L56.0859 35.25L55.8859 39H41.3859L41.1359 34.25ZM85.1938 39.65C80.9604 39.65 77.7938 38.5667 75.6938 36.4C73.6271 34.2333 72.5938 30.9167 72.5938 26.45C72.5938 23.5833 73.1104 21.0833 74.1438 18.95C75.2104 16.8167 76.7271 15.1833 78.6938 14.05C80.6604 12.9167 82.9771 12.35 85.6438 12.35C94.2771 12.35 98.5938 16.8167 98.5938 25.75C98.5938 30.1167 97.4104 33.5333 95.0438 36C92.7104 38.4333 89.4271 39.65 85.1938 39.65ZM85.9938 33.8C86.6604 33.8 87.2438 33.75 87.7438 33.65C88.2438 33.5167 88.7771 33.3167 89.3438 33.05C89.5438 32.2833 89.7104 31.3 89.8438 30.1C89.9771 28.9 90.0438 27.75 90.0438 26.65C90.0438 23.95 89.6104 21.9 88.7438 20.5C87.9104 19.1 86.6604 18.4 84.9938 18.4C83.8938 18.4 82.7771 18.55 81.6438 18.85C81.4104 19.35 81.2271 20.1667 81.0938 21.3C80.9604 22.4 80.8938 23.6667 80.8938 25.1C80.8938 27.9 81.3271 30.05 82.1938 31.55C83.0938 33.05 84.3604 33.8 85.9938 33.8ZM108.783 19.7C108.417 18.8 108.167 18.2167 108.033 17.95C107.9 17.6833 107.65 17.3167 107.283 16.85L106.433 15.75L106.683 12.85H119.333L119.833 17.1L117.083 17.75L120.483 29.9L125.433 13.25L130.583 12.55L136.283 30.35L139.483 18.85C139.55 18.65 139.583 18.5 139.583 18.4C139.583 18.1 139.433 17.9 139.133 17.8L136.733 16.8L137.233 12.85H146.733L147.233 16.75L138.633 39.25L131.433 39.8L127.283 25.9L122.733 39.25L115.533 39.8L108.783 19.7ZM155.859 39.65C153.593 39.65 151.776 39.0333 150.409 37.8C149.043 36.5333 148.359 34.9167 148.359 32.95C148.359 30.3167 149.676 28.25 152.309 26.75C154.976 25.25 158.843 24.4 163.909 24.2C163.909 22.6333 163.776 21.4833 163.509 20.75C163.276 19.9833 162.826 19.4667 162.159 19.2C161.526 18.9 160.543 18.75 159.209 18.75C157.843 18.75 156.876 18.8 156.309 18.9L154.259 22.95L150.559 22.7C149.993 20.0333 149.593 17.2667 149.359 14.4C151.226 13.7667 153.259 13.2667 155.459 12.9C157.693 12.5333 159.776 12.35 161.709 12.35C165.243 12.35 167.776 13.05 169.309 14.45C170.843 15.8167 171.609 18.1 171.609 21.3V31.75C171.609 32.35 171.659 32.7667 171.759 33C171.893 33.2333 172.159 33.4667 172.559 33.7L174.559 34.85L174.359 37.95C170.493 38.85 167.443 39.35 165.209 39.45C165.143 39.25 165.043 38.9 164.909 38.4C164.776 37.8667 164.659 37.3667 164.559 36.9C163.259 37.7333 161.826 38.4 160.259 38.9C158.726 39.4 157.259 39.65 155.859 39.65ZM159.209 34C160.543 34 162.159 33.55 164.059 32.65L163.859 28.85C163.059 28.7833 162.526 28.75 162.259 28.75C161.359 28.75 160.309 28.85 159.109 29.05C157.909 29.2167 156.959 29.4167 156.259 29.65C156.159 30.0833 156.109 30.4833 156.109 30.85C156.109 31.85 156.376 32.6333 156.909 33.2C157.476 33.7333 158.243 34 159.209 34ZM175.345 34.2L178.445 33.3V21.2C178.445 20.4667 178.395 20 178.295 19.8C178.195 19.5667 177.928 19.3167 177.495 19.05L175.295 17.85L175.445 14.1L176.545 13.9C180.912 13.0333 184.062 12.5667 185.995 12.5C186.262 13.2 186.478 13.9667 186.645 14.8C188.678 13.8667 190.328 13.2333 191.595 12.9C192.895 12.5333 194.112 12.35 195.245 12.35C200.545 12.35 203.195 15.5167 203.195 21.85V31.65C203.195 32.35 203.245 32.8167 203.345 33.05C203.445 33.2833 203.728 33.5333 204.195 33.8L206.595 35.2L206.395 38.95H192.595L192.345 34.2L194.795 33.5V24.05C194.795 22.55 194.745 21.5 194.645 20.9C194.545 20.3 194.262 19.8333 193.795 19.5C193.362 19.1667 192.578 19 191.445 19C190.245 19 188.728 19.1833 186.895 19.55V31.65C186.895 32.35 186.945 32.8167 187.045 33.05C187.145 33.2833 187.412 33.5333 187.845 33.8L190.295 35.2L190.095 38.95H175.595L175.345 34.2ZM217.495 39.65C214.561 39.65 212.395 38.9333 210.995 37.5C209.595 36.0333 208.895 33.8167 208.895 30.85V18.7H205.395V15.05L214.395 6.85L217.295 7.2V12.85H225.695V18.75H217.295V29.05C217.295 30.65 217.511 31.7167 217.945 32.25C218.411 32.7833 219.295 33.05 220.595 33.05C221.695 33.05 223.228 32.9 225.195 32.6L225.795 37.7C224.595 38.2667 223.245 38.7333 221.745 39.1C220.278 39.4667 218.861 39.65 217.495 39.65ZM248.148 39.6C246.315 39.6 244.481 39.4 242.648 39C240.815 38.6333 239.115 38.1333 237.548 37.5V9.4C237.548 8.66667 237.498 8.2 237.398 8C237.298 7.76667 237.031 7.51666 236.598 7.25L234.248 6.1L234.498 2.3C237.598 1.76666 239.948 1.38333 241.548 1.15C243.148 0.916664 244.398 0.783331 245.298 0.749998C245.631 1.45 245.865 2.31667 245.998 3.35V13.35C247.898 12.6833 249.781 12.35 251.648 12.35C255.148 12.35 257.881 13.4667 259.848 15.7C261.848 17.9 262.848 21.0667 262.848 25.2C262.848 29.7667 261.581 33.3167 259.048 35.85C256.548 38.35 252.915 39.6 248.148 39.6ZM249.898 33.15C251.465 33.15 252.631 32.9833 253.398 32.65C253.665 31.75 253.881 30.7 254.048 29.5C254.215 28.3 254.298 27.1333 254.298 26C254.298 20.8667 252.581 18.3 249.148 18.3C248.281 18.3 247.231 18.45 245.998 18.75V32.5C246.865 32.9333 248.165 33.15 249.898 33.15ZM277.575 39.6C273.675 39.6 270.658 38.4167 268.525 36.05C266.425 33.6833 265.375 30.4167 265.375 26.25C265.375 23.35 265.892 20.8667 266.925 18.8C267.958 16.7 269.425 15.1 271.325 14C273.225 12.9 275.442 12.35 277.975 12.35C281.742 12.35 284.625 13.55 286.625 15.95C288.658 18.35 289.625 21.7667 289.525 26.2L274.325 29C274.792 30.4 275.442 31.4333 276.275 32.1C277.142 32.7333 278.275 33.05 279.675 33.05C280.642 33.05 281.792 32.9167 283.125 32.65C284.458 32.35 285.808 31.95 287.175 31.45L288.325 36.4C287.092 37.3333 285.492 38.1 283.525 38.7C281.558 39.3 279.575 39.6 277.575 39.6ZM281.325 22C281.258 20.7333 280.892 19.8167 280.225 19.25C279.592 18.65 278.692 18.35 277.525 18.35C276.558 18.35 275.642 18.4833 274.775 18.75C274.075 20.3833 273.758 22.15 273.825 24.05L281.325 22ZM307.502 39.65C305.235 39.65 303.419 39.0333 302.052 37.8C300.685 36.5333 300.002 34.9167 300.002 32.95C300.002 30.3167 301.319 28.25 303.952 26.75C306.619 25.25 310.485 24.4 315.552 24.2C315.552 22.6333 315.419 21.4833 315.152 20.75C314.919 19.9833 314.469 19.4667 313.802 19.2C313.169 18.9 312.185 18.75 310.852 18.75C309.485 18.75 308.519 18.8 307.952 18.9L305.902 22.95L302.202 22.7C301.635 20.0333 301.235 17.2667 301.002 14.4C302.869 13.7667 304.902 13.2667 307.102 12.9C309.335 12.5333 311.419 12.35 313.352 12.35C316.885 12.35 319.419 13.05 320.952 14.45C322.485 15.8167 323.252 18.1 323.252 21.3V31.75C323.252 32.35 323.302 32.7667 323.402 33C323.535 33.2333 323.802 33.4667 324.202 33.7L326.202 34.85L326.002 37.95C322.135 38.85 319.085 39.35 316.852 39.45C316.785 39.25 316.685 38.9 316.552 38.4C316.419 37.8667 316.302 37.3667 316.202 36.9C314.902 37.7333 313.469 38.4 311.902 38.9C310.369 39.4 308.902 39.65 307.502 39.65ZM310.852 34C312.185 34 313.802 33.55 315.702 32.65L315.502 28.85C314.702 28.7833 314.169 28.75 313.902 28.75C313.002 28.75 311.952 28.85 310.752 29.05C309.552 29.2167 308.602 29.4167 307.902 29.65C307.802 30.0833 307.752 30.4833 307.752 30.85C307.752 31.85 308.019 32.6333 308.552 33.2C309.119 33.7333 309.885 34 310.852 34ZM336.24 34.4L339.74 33.35V18.7L336.24 18.65V13.75L339.74 13.55V10.3C339.74 7.26667 340.624 4.91667 342.39 3.25C344.157 1.58333 346.724 0.749998 350.09 0.749998C351.824 0.749998 353.924 0.966665 356.39 1.4L355.24 8.2C353.774 7.8 352.49 7.53333 351.39 7.4C350.324 7.23333 349.24 7.16667 348.14 7.2V13.1L353.84 12.75V18.9L348.14 18.8V31.7C348.14 32.4 348.19 32.8667 348.29 33.1C348.39 33.3333 348.674 33.5833 349.14 33.85L352.24 35.55L352.09 39H336.39L336.24 34.4ZM355.604 34.25L358.654 33.35V21.2C358.654 20.4667 358.604 20 358.504 19.8C358.404 19.5667 358.137 19.3167 357.704 19.05L355.504 17.85L355.654 14.1C356.221 13.9667 356.704 13.8833 357.104 13.85C361.137 13.0167 364.121 12.5667 366.054 12.5C366.354 13.3667 366.637 14.45 366.904 15.75C368.904 14.1833 370.604 13.1 372.004 12.5H374.854C374.821 13.7667 374.737 15.15 374.604 16.65C374.471 18.1167 374.304 19.3 374.104 20.2C372.904 20.1333 372.021 20.1 371.454 20.1C370.054 20.1 368.604 20.1833 367.104 20.35V31.7C367.104 32.4 367.154 32.8667 367.254 33.1C367.354 33.3333 367.621 33.5833 368.054 33.85L371.054 35.45L370.854 39H355.854L355.604 34.25ZM387.893 39.65C383.66 39.65 380.493 38.5667 378.393 36.4C376.326 34.2333 375.293 30.9167 375.293 26.45C375.293 23.5833 375.81 21.0833 376.843 18.95C377.91 16.8167 379.426 15.1833 381.393 14.05C383.36 12.9167 385.676 12.35 388.343 12.35C396.976 12.35 401.293 16.8167 401.293 25.75C401.293 30.1167 400.11 33.5333 397.743 36C395.41 38.4333 392.126 39.65 387.893 39.65ZM388.693 33.8C389.36 33.8 389.943 33.75 390.443 33.65C390.943 33.5167 391.476 33.3167 392.043 33.05C392.243 32.2833 392.41 31.3 392.543 30.1C392.676 28.9 392.743 27.75 392.743 26.65C392.743 23.95 392.31 21.9 391.443 20.5C390.61 19.1 389.36 18.4 387.693 18.4C386.593 18.4 385.476 18.55 384.343 18.85C384.11 19.35 383.926 20.1667 383.793 21.3C383.66 22.4 383.593 23.6667 383.593 25.1C383.593 27.9 384.026 30.05 384.893 31.55C385.793 33.05 387.06 33.8 388.693 33.8ZM402.724 34.2L405.824 33.3V21.2C405.824 20.4667 405.774 20 405.674 19.8C405.574 19.5667 405.307 19.3167 404.874 19.05L402.674 17.85L402.824 14.1L403.924 13.9C408.29 13.0333 411.44 12.5667 413.374 12.5C413.64 13.2 413.857 13.9667 414.024 14.8C416.057 13.8667 417.707 13.2333 418.974 12.9C420.274 12.5333 421.49 12.35 422.624 12.35C427.924 12.35 430.574 15.5167 430.574 21.85V31.65C430.574 32.35 430.624 32.8167 430.724 33.05C430.824 33.2833 431.107 33.5333 431.574 33.8L433.974 35.2L433.774 38.95H419.974L419.724 34.2L422.174 33.5V24.05C422.174 22.55 422.124 21.5 422.024 20.9C421.924 20.3 421.64 19.8333 421.174 19.5C420.74 19.1667 419.957 19 418.824 19C417.624 19 416.107 19.1833 414.274 19.55V31.65C414.274 32.35 414.324 32.8167 414.424 33.05C414.524 33.2833 414.79 33.5333 415.224 33.8L417.674 35.2L417.474 38.95H402.974L402.724 34.2ZM444.873 39.65C441.94 39.65 439.773 38.9333 438.373 37.5C436.973 36.0333 436.273 33.8167 436.273 30.85V18.7H432.773V15.05L441.773 6.85L444.673 7.2V12.85H453.073V18.75H444.673V29.05C444.673 30.65 444.89 31.7167 445.323 32.25C445.79 32.7833 446.673 33.05 447.973 33.05C449.073 33.05 450.607 32.9 452.573 32.6L453.173 37.7C451.973 38.2667 450.623 38.7333 449.123 39.1C447.657 39.4667 446.24 39.65 444.873 39.65ZM473.827 39.65C470.627 39.65 468.127 38.45 466.327 36.05C464.527 33.65 463.627 30.4333 463.627 26.4C463.627 21.7667 464.844 18.2667 467.277 15.9C469.744 13.5333 473.244 12.35 477.777 12.35C478.044 12.35 478.91 12.3833 480.377 12.45V9.45C480.377 8.71667 480.327 8.23333 480.227 8C480.127 7.76667 479.844 7.51666 479.377 7.25L477.127 6.1L477.377 2.3C480.577 1.73333 482.944 1.35 484.477 1.15C486.01 0.916664 487.227 0.783331 488.127 0.749998C488.427 1.51666 488.644 2.38333 488.777 3.35V31.8C488.777 32.4 488.827 32.8167 488.927 33.05C489.06 33.2833 489.344 33.5167 489.777 33.75L491.677 34.9L491.477 38C488.21 38.8333 485.01 39.3333 481.877 39.5C481.644 38.8667 481.41 38.1 481.177 37.2C478.91 38.8333 476.46 39.65 473.827 39.65ZM476.727 33.25C477.827 33.25 479.06 32.8833 480.427 32.15V19.2C479.427 18.7667 478.144 18.55 476.577 18.55C475.31 18.55 474.094 18.7167 472.927 19.05C472.66 19.6833 472.444 20.55 472.277 21.65C472.144 22.75 472.077 23.9667 472.077 25.3C472.077 28.0333 472.444 30.05 473.177 31.35C473.944 32.6167 475.127 33.25 476.727 33.25ZM504.514 39.6C500.614 39.6 497.598 38.4167 495.464 36.05C493.364 33.6833 492.314 30.4167 492.314 26.25C492.314 23.35 492.831 20.8667 493.864 18.8C494.898 16.7 496.364 15.1 498.264 14C500.164 12.9 502.381 12.35 504.914 12.35C508.681 12.35 511.564 13.55 513.564 15.95C515.598 18.35 516.564 21.7667 516.464 26.2L501.264 29C501.731 30.4 502.381 31.4333 503.214 32.1C504.081 32.7333 505.214 33.05 506.614 33.05C507.581 33.05 508.731 32.9167 510.064 32.65C511.398 32.35 512.748 31.95 514.114 31.45L515.264 36.4C514.031 37.3333 512.431 38.1 510.464 38.7C508.498 39.3 506.514 39.6 504.514 39.6ZM508.264 22C508.198 20.7333 507.831 19.8167 507.164 19.25C506.531 18.65 505.631 18.35 504.464 18.35C503.498 18.35 502.581 18.4833 501.714 18.75C501.014 20.3833 500.698 22.15 500.764 24.05L508.264 22ZM518.95 19.7C518.583 18.8 518.333 18.2167 518.2 17.95C518.067 17.6833 517.817 17.3167 517.45 16.85L516.6 15.75L516.85 12.85H529.45L529.95 17.1L527.05 17.8L531.6 30.7L536 18.85C536.067 18.65 536.1 18.5 536.1 18.4C536.1 18.1 535.95 17.9 535.65 17.8L533.3 16.8L533.75 12.85H543.25L543.75 16.9L533.85 39.1L526.65 39.65L518.95 19.7ZM556.616 39.6C552.716 39.6 549.699 38.4167 547.566 36.05C545.466 33.6833 544.416 30.4167 544.416 26.25C544.416 23.35 544.933 20.8667 545.966 18.8C546.999 16.7 548.466 15.1 550.366 14C552.266 12.9 554.483 12.35 557.016 12.35C560.783 12.35 563.666 13.55 565.666 15.95C567.699 18.35 568.666 21.7667 568.566 26.2L553.366 29C553.833 30.4 554.483 31.4333 555.316 32.1C556.183 32.7333 557.316 33.05 558.716 33.05C559.683 33.05 560.833 32.9167 562.166 32.65C563.499 32.35 564.849 31.95 566.216 31.45L567.366 36.4C566.133 37.3333 564.533 38.1 562.566 38.7C560.599 39.3 558.616 39.6 556.616 39.6ZM560.366 22C560.299 20.7333 559.933 19.8167 559.266 19.25C558.633 18.65 557.733 18.35 556.566 18.35C555.599 18.35 554.683 18.4833 553.816 18.75C553.116 20.3833 552.799 22.15 552.866 24.05L560.366 22ZM569.014 34.4L572.514 33.35V9.4C572.514 8.66667 572.447 8.2 572.314 8C572.214 7.76667 571.93 7.51666 571.464 7.25L569.264 6.1L569.514 2.3C570.18 2.16667 570.697 2.08333 571.064 2.05C575.464 1.25 578.53 0.816666 580.264 0.749998C580.597 1.51666 580.814 2.38333 580.914 3.35V31.7C580.914 32.4 580.964 32.8667 581.064 33.1C581.164 33.3333 581.447 33.5833 581.914 33.85L584.364 35.25L584.164 39H569.164L569.014 34.4ZM597.448 39.65C593.214 39.65 590.048 38.5667 587.948 36.4C585.881 34.2333 584.848 30.9167 584.848 26.45C584.848 23.5833 585.364 21.0833 586.398 18.95C587.464 16.8167 588.981 15.1833 590.948 14.05C592.914 12.9167 595.231 12.35 597.898 12.35C606.531 12.35 610.848 16.8167 610.848 25.75C610.848 30.1167 609.664 33.5333 607.298 36C604.964 38.4333 601.681 39.65 597.448 39.65ZM598.248 33.8C598.914 33.8 599.498 33.75 599.998 33.65C600.498 33.5167 601.031 33.3167 601.598 33.05C601.798 32.2833 601.964 31.3 602.098 30.1C602.231 28.9 602.298 27.75 602.298 26.65C602.298 23.95 601.864 21.9 600.998 20.5C600.164 19.1 598.914 18.4 597.248 18.4C596.148 18.4 595.031 18.55 593.898 18.85C593.664 19.35 593.481 20.1667 593.348 21.3C593.214 22.4 593.148 23.6667 593.148 25.1C593.148 27.9 593.581 30.05 594.448 31.55C595.348 33.05 596.614 33.8 598.248 33.8ZM611.757 45L614.857 44.15V21.2C614.857 20.4667 614.807 20 614.707 19.8C614.607 19.5667 614.324 19.3167 613.857 19.05L611.607 17.85L611.857 14.1C612.024 14.0667 612.191 14.0333 612.357 14C612.524 13.9667 612.707 13.9333 612.907 13.9C614.474 13.6 616.124 13.3167 617.857 13.05C619.624 12.75 621.074 12.5667 622.207 12.5C622.507 13.2 622.707 14 622.807 14.9C623.841 14.0667 624.941 13.4333 626.107 13C627.307 12.5667 628.491 12.35 629.657 12.35C632.991 12.35 635.541 13.5333 637.307 15.9C639.107 18.2333 640.007 21.5667 640.007 25.9C640.007 30.4 638.774 33.85 636.307 36.25C633.841 38.6167 630.274 39.8 625.607 39.8C625.107 39.8 624.324 39.7667 623.257 39.7V42.45C623.257 43.1833 623.307 43.6667 623.407 43.9C623.507 44.1333 623.791 44.3667 624.257 44.6L627.207 46.25L627.007 49.75H612.007L611.757 45ZM626.907 33.6C628.474 33.6 629.741 33.3833 630.707 32.95C630.974 32.1167 631.191 31.1167 631.357 29.95C631.557 28.75 631.657 27.6333 631.657 26.6C631.657 24.0333 631.207 22.05 630.307 20.65C629.441 19.25 628.224 18.55 626.657 18.55C625.691 18.55 624.557 18.8333 623.257 19.4V33C624.224 33.4 625.441 33.6 626.907 33.6ZM654.813 39.6C650.913 39.6 647.897 38.4167 645.763 36.05C643.663 33.6833 642.613 30.4167 642.613 26.25C642.613 23.35 643.13 20.8667 644.163 18.8C645.197 16.7 646.663 15.1 648.563 14C650.463 12.9 652.68 12.35 655.213 12.35C658.98 12.35 661.863 13.55 663.863 15.95C665.897 18.35 666.863 21.7667 666.763 26.2L651.563 29C652.03 30.4 652.68 31.4333 653.513 32.1C654.38 32.7333 655.513 33.05 656.913 33.05C657.88 33.05 659.03 32.9167 660.363 32.65C661.697 32.35 663.047 31.95 664.413 31.45L665.563 36.4C664.33 37.3333 662.73 38.1 660.763 38.7C658.797 39.3 656.813 39.6 654.813 39.6ZM658.563 22C658.497 20.7333 658.13 19.8167 657.463 19.25C656.83 18.65 655.93 18.35 654.763 18.35C653.797 18.35 652.88 18.4833 652.013 18.75C651.313 20.3833 650.997 22.15 651.063 24.05L658.563 22ZM668.043 34.25L671.093 33.35V21.2C671.093 20.4667 671.043 20 670.943 19.8C670.843 19.5667 670.577 19.3167 670.143 19.05L667.943 17.85L668.093 14.1C668.66 13.9667 669.143 13.8833 669.543 13.85C673.577 13.0167 676.56 12.5667 678.493 12.5C678.793 13.3667 679.077 14.45 679.343 15.75C681.343 14.1833 683.043 13.1 684.443 12.5H687.293C687.26 13.7667 687.177 15.15 687.043 16.65C686.91 18.1167 686.743 19.3 686.543 20.2C685.343 20.1333 684.46 20.1 683.893 20.1C682.493 20.1 681.043 20.1833 679.543 20.35V31.7C679.543 32.4 679.593 32.8667 679.693 33.1C679.793 33.3333 680.06 33.5833 680.493 33.85L683.493 35.45L683.293 39H668.293L668.043 34.25Z" fill="black"/>
</svg>
